<?xml version="1.0" standalone="no"?>
<!DOCTYPE svg PUBLIC "-//W3C//DTD SVG 1.1//EN" "http://www.w3.org/Graphics/SVG/1.1/DTD/svg11.dtd">
<svg xmlns="http://www.w3.org/2000/svg">
<defs >
<font id="Exo2" horiz-adv-x="560" ><font-face
    font-family="Exo 2 Medium"
    units-per-em="1000"
    panose-1="0 0 6 0 0 0 0 0 0 0"
    ascent="999"
    descent="-201"
    alphabetic="0" />
<glyph unicode=" " glyph-name="space" horiz-adv-x="222" />
<glyph unicode="!" glyph-name="exclam" horiz-adv-x="277" d="M187 396L177 213H100L90 396V695H187V396ZM171 124T179 116T187 89V36Q187 16 179 8T151 0H127Q107 0 100 8T92 36V89Q92 109 100 116T127 124H151Q171 124 179 116Z" />
<glyph unicode="&quot;" glyph-name="quotedbl" horiz-adv-x="358" d="M139 474H73L67 690H145L139 474ZM286 474H220L214 690H292L286 474Z" />
<glyph unicode="#" glyph-name="numbersign" horiz-adv-x="688" d="M525 444L495 271H604L592 210H485L448 0H371L408 210H234L197 0H120L157 210H41L53 271H167L197 444H83L95 505H208L240 690H317L285 505H459L491 690H568L536 505H646L634 444H525ZM448 444H274L244
271H418L448 444Z" />
<glyph unicode="$" glyph-name="dollar" horiz-adv-x="565" d="M453 353T484 306T516 178Q516 99 493 59T419 3T281 -12H280L271 -125H220L229 -11Q146 -7 64 8L71 85L237 81L255 306L192 324Q118 344 87 391T55 520Q55 598 78 637T149 689T282 702H292L300 798H350L343
701Q431 696 490 681L484 608Q403 612 336 613L319 390L376 374Q453 353 484 306ZM156 466T174 445T240 412L269 404L285 613Q232 613 207 608T169 582T156 517Q156 466 174 445ZM338 81T364 88T402 117T414 179Q414 216 406 236T380 266T332 285L304 293L287 81Q338
81 364 88Z" />
<glyph unicode="%" glyph-name="percent" horiz-adv-x="896" d="M268 703T303 683T354 618T370 498Q370 423 355 379T304 314T207 293Q146 293 111 313T60 378T44 498Q44 573 59 617T110 682T207 703Q268 703 303 683ZM260 0H192L633 690H701L260 0ZM172 643T153
629T126 584T118 498Q118 442 126 411T153 367T206 353Q241 353 260 366T287 411T295 498Q295 553 287 584T260 629T206 643Q172 643 153 629ZM749 400T784 380T835 315T851 195Q851 120 836 76T785 11T689 -10Q628 -10 593 10T542 75T526 195Q526 270 541 314T592
379T689 400Q749 400 784 380ZM653 339T634 326T607 282T600 195Q599 139 607 108T634 64T688 50Q722 50 741 63T769 108T777 195Q777 251 769 282T742 326T688 339Q653 339 634 326Z" />
<glyph unicode="&amp;" glyph-name="ampersand" horiz-adv-x="770" d="M724 4Q703 -2 671 -5T615 -9Q564 -9 533 12T493 74Q450 28 398 9T267 -11Q193 -11 149 6T85 64T64 175Q64 258 95 304T200 356V360Q138 366 111 405T84 521Q84 600 110 638T191 688T346 701Q439
701 506 690L494 615Q452 618 343 618Q279 618 247 610T201 579T186 507Q186 462 197 438T236 405T312 395H492L500 518H581V395H704L703 319H581V138Q581 103 594 89T642 75H713L724 4ZM356 77T404 94T490 149V319H306Q254 319 225 308T183 269T170 192Q170 147
181 122T218 87T292 76Q356 77 404 94Z" />
<glyph unicode="&apos;" glyph-name="quotesingle" horiz-adv-x="211" d="M139 474H73L67 690H145L139 474Z" />
<glyph unicode="(" glyph-name="parenleft" horiz-adv-x="360" d="M331 745Q234 699 190 592T145 313Q145 144 189 37T331 -120L319 -165Q181 -113 116 2T51 312Q51 507 116 623T319 790L331 745Z" />
<glyph unicode=")" glyph-name="parenright" horiz-adv-x="360" d="M180 739T245 623T310 312Q310 118 245 3T41 -165L29 -120Q126 -71 170 36T215 313Q215 485 171 592T29 745L41 790Q180 739 245 623Z" />
<glyph unicode="*" glyph-name="asterisk" horiz-adv-x="450" d="M244 529L346 400L300 366L224 490L149 367L102 401L204 529L196 691H254L244 529ZM187 557L186 532L174 516L50 549L69 603L187 557ZM399 548L275 516L262 532V557L381 603L399 548Z" />
<glyph unicode="+" glyph-name="plus" horiz-adv-x="550" d="M495 263H311V89H238V263H54V335H237V510H312V335H495V263Z" />
<glyph unicode="," glyph-name="comma" horiz-adv-x="232" d="M150 124T157 117T165 89V25Q164 -64 127 -134L81 -122Q92 -66 92 0Q79 0 72 8T65 31V89Q66 108 74 116T103 124H131Q150 124 157 117Z" />
<glyph unicode="-" glyph-name="hyphen" horiz-adv-x="442" d="M373 216H69V290H373V216Z" />
<glyph unicode="." glyph-name="period" horiz-adv-x="233" d="M152 124T160 117T168 89V36Q168 16 160 8T132 0H101Q81 0 73 8T65 36V89Q65 109 73 116T101 124H132Q152 124 160 117Z" />
<glyph unicode="/" glyph-name="slash" horiz-adv-x="522" d="M104 -67H25L418 690H497L104 -67Z" />
<glyph unicode="0" glyph-name="zero" horiz-adv-x="607" d="M393 703T446 667T522 553T545 345Q545 215 522 138T446 24T303 -13Q213 -13 160 23T84 137T61 345Q61 475 84 552T160 666T303 703Q393 703 446 667ZM248 616T217 590T173 505T159 345Q159 243 172
185T217 101T302 74Q358 74 389 100T434 185T448 345Q448 447 435 505T390 589T302 616Q248 616 217 590Z" />
<glyph unicode="1" glyph-name="one" horiz-adv-x="402" d="M293 0H193V534Q193 570 198 596L32 545L20 620L193 690H293V0Z" />
<glyph unicode="2" glyph-name="two" horiz-adv-x="563" d="M345 702T391 690T462 645T487 551Q487 487 461 433T367 304L175 93Q222 97 285 97H511V0H54V63Q54 90 69 105L261 322Q326 392 356 444T386 541Q386 586 358 600T264 614Q214 614 172 611T65 599L59
677Q125 692 173 697T273 702Q345 702 391 690Z" />
<glyph unicode="3" glyph-name="three" horiz-adv-x="557" d="M337 703T383 688T452 639T475 543Q475 469 453 425T374 369V365Q440 354 466 310T493 185Q493 82 442 35T272 -13Q177 -13 51 5L57 86Q174 76 247 76Q328 76 361 104T394 203Q394 264 367 293T264
323H137V401H264Q314 401 339 416T371 457T379 519Q378 561 366 581T327 608T245 615Q163 615 69 607L62 685Q165 703 260 703Q337 703 383 688Z" />
<glyph unicode="4" glyph-name="four" horiz-adv-x="619" d="M577 245V174L487 164V0H392V164H115Q81 164 59 186T37 240Q37 258 45 277L236 690H334L148 284Q143 272 143 266Q143 256 151 251T172 245H392V445L410 557H487V245H577Z" />
<glyph unicode="5" glyph-name="five" horiz-adv-x="538" d="M460 604H174L164 432L242 425Q331 417 383 394T460 327T484 210Q484 110 437 49T259 -12Q161 -12 49 13L61 94Q155 77 235 77Q298 77 330 92T374 136T386 216Q386 271 366 296T304 329T166 346L114
351Q97 352 87 364T77 394L93 690H464L460 604Z" />
<glyph unicode="6" glyph-name="six" horiz-adv-x="574" d="M405 452T445 430T503 360T521 226Q521 147 504 96T439 17T300 -12Q200 -12 151 18T83 120T64 332Q64 489 92 568T177 675T334 702Q420 702 477 687L469 614Q424 617 334 617Q270 617 236 600T184 534T163
385Q197 422 235 437T331 452Q405 452 445 430ZM355 74T382 91T417 139T426 226Q426 281 416 311T379 356T305 371Q264 371 233 359T162 314Q163 211 171 163T208 95T301 74Q355 74 382 91Z" />
<glyph unicode="7" glyph-name="seven" horiz-adv-x="514" d="M455 690T469 679T483 647Q483 641 479 625L266 0H166L355 552Q366 584 378 605H41L37 690H430Q455 690 469 679Z" />
<glyph unicode="8" glyph-name="eight" horiz-adv-x="607" d="M391 701T439 682T506 624T525 518Q525 449 501 408T427 360V356Q489 350 515 304T541 172Q541 106 521 67T450 9T303 -11Q210 -11 159 8T87 67T66 172Q66 257 91 303T180 356V360Q130 366 106 407T82
518Q82 585 101 624T167 682T303 701Q391 701 439 682ZM250 620T222 610T184 576T173 508Q173 463 184 440T222 407T305 398Q360 398 387 407T424 439T434 508Q434 552 424 576T386 610T304 620Q250 620 222 610ZM245 317T215 307T172 271T160 194Q160 147 172
122T214 86T304 75Q362 75 392 86T433 122T445 194Q445 246 434 271T393 307T305 318Q245 317 215 307Z" />
<glyph unicode="9" glyph-name="nine" horiz-adv-x="574" d="M378 702T426 671T491 568T508 353Q508 201 481 123T398 17T238 -12Q148 -12 85 3L93 77Q141 74 237 74Q303 74 338 93T390 163T410 309Q375 269 337 254T240 238Q138 238 96 299T53 467Q53 588 104
645T277 702Q378 702 426 671ZM307 318T338 331T411 378Q410 481 402 528T366 596T276 617Q223 617 196 600T158 550T148 463Q147 389 173 354T267 318Q307 318 338 331Z" />
<glyph unicode=":" glyph-name="colon" horiz-adv-x="242" d="M153 442T161 435T169 407V354Q169 334 161 326T133 318H102Q82 318 74 326T66 354V407Q66 427 74 434T102 442H133Q153 442 161 435ZM153 124T161 117T169 89V36Q169 16 161 8T133 0H102Q82 0 74
8T66 36V89Q66 109 74 116T102 124H133Q153 124 161 117Z" />
<glyph unicode=";" glyph-name="semicolon" horiz-adv-x="243" d="M158 442T166 435T174 407V354Q174 334 166 326T138 318H107Q87 318 79 326T71 354V407Q71 427 79 434T107 442H138Q158 442 166 435ZM156 124T163 117T171 89V25Q170 -64 133 -134L87 -122Q98
-66 98 0Q85 0 78 8T71 31V89Q72 108 80 116T109 124H137Q156 124 163 117Z" />
<glyph unicode="&lt;" glyph-name="less" horiz-adv-x="528" d="M460 432L134 298L460 167V90L51 260V336L460 509V432Z" />
<glyph unicode="=" glyph-name="equal" horiz-adv-x="585" d="M513 363H71V435H513V363ZM513 152H71V224H513V152Z" />
<glyph unicode="&gt;" glyph-name="greater" horiz-adv-x="528" d="M477 336V260L68 90V167L394 298L68 432V509L477 336Z" />
<glyph unicode="?" glyph-name="question" horiz-adv-x="504" d="M364 712T414 674T465 557Q465 508 444 475T380 396Q334 348 311 310T284 213H202Q201 262 214 300T246 364T297 426Q330 462 345 486T362 540Q364 586 335 608T240 630Q172 630 138 628T43 621L38
691L73 697Q122 705 158 708T261 712Q364 712 414 674ZM275 124T283 117T291 89V36Q291 16 283 8T255 0H231Q211 0 203 8T195 36V89Q195 109 203 116T231 124H255Q275 124 283 117Z" />
<glyph unicode="@" glyph-name="at" horiz-adv-x="723" d="M575 588T614 554T653 441V132H581L571 207Q540 175 488 150T379 124Q319 124 283 155T247 246V296Q247 346 276 373T362 400H562V438Q562 478 545 493T480 508H355Q262 508 226 495T176 435T163 267Q163
142 177 94T234 34T390 21H651V-51Q485 -60 372 -60Q231 -60 171 -37T91 51T71 267Q71 417 89 480T164 565T354 588H499Q575 588 614 554ZM396 337Q362 336 350 325T337 284V263Q337 230 352 216T398 201Q440 201 485 217T562 263V341L396 337Z" />
<glyph unicode="A" glyph-name="A" horiz-adv-x="626" d="M450 208H175L111 0H9L225 663Q229 676 238 683T262 690H364Q377 690 387 683T400 663L617 0H514L450 208ZM423 295L343 557L326 613H299L283 557L202 295H423Z" />
<glyph unicode="B" glyph-name="B" horiz-adv-x="622" d="M503 349T534 304T566 172Q566 101 544 62T475 8T344 -8Q248 -8 195 -7T84 0V690Q135 695 182 696T314 698Q402 698 451 683T523 628T545 518Q545 443 517 405T428 360V356Q503 349 534 304ZM182 613V396H322Q371
396 398 405T437 438T449 506Q449 550 436 572T393 604T309 613H182ZM383 77T411 86T452 119T465 189Q465 241 452 268T409 307T323 319H182V78Q222 77 329 77Q383 77 411 86Z" />
<glyph unicode="C" glyph-name="C" horiz-adv-x="572" d="M396 702T437 698T523 682L513 605Q433 613 332 613Q267 613 231 588T180 506T164 345Q164 242 179 185T231 102T332 77Q400 77 443 79T527 88L537 12Q492 -1 446 -6T332 -12Q230 -12 171 22T86 134T59
345Q59 478 85 555T171 667T332 702Q396 702 437 698Z" />
<glyph unicode="D" glyph-name="D" horiz-adv-x="665" d="M436 699T494 666T579 557T606 345Q606 210 580 134T495 24T333 -9Q215 -9 84 0V690Q215 699 333 699Q436 699 494 666ZM397 78T433 103T484 185T500 345Q500 447 485 504T433 587T333 612Q272 612 184
610V80Q270 78 333 78Q397 78 433 103Z" />
<glyph unicode="E" glyph-name="E" horiz-adv-x="562" d="M508 83L513 6Q453 1 386 0T217 -2Q153 -2 116 31T78 122V568Q79 625 116 658T217 692Q318 692 385 691T513 684L508 606H234Q204 606 192 592T179 542V404H470V323H179V147Q179 112 191 98T234 83H508Z" />
<glyph unicode="F" glyph-name="F" horiz-adv-x="540" d="M211 606T197 592T182 542V393H464V312L182 311V0H82V563Q82 624 119 658T221 692Q319 692 383 691T507 683L502 606H246Q211 606 197 592Z" />
<glyph unicode="G" glyph-name="G" horiz-adv-x="629" d="M564 398V0H490L480 69Q443 35 391 11T275 -13Q161 -13 110 74T59 348Q59 487 87 563T178 671T353 703Q461 703 545 682L535 606Q451 614 359 614Q281 614 241 595T183 518T165 341Q165 240 178 183T221
100T303 74Q348 74 385 89T466 135V398H564Z" />
<glyph unicode="H" glyph-name="H" horiz-adv-x="670" d="M586 690V0H486V325H184V0H84V690H184V411H486V690H586Z" />
<glyph unicode="I" glyph-name="I" horiz-adv-x="268" d="M184 0H84V690H184V0Z" />
<glyph unicode="J" glyph-name="J" horiz-adv-x="343" d="M262 151Q262 73 228 32T128 -9Q107 -9 77 -6T28 4L39 76H88Q162 76 162 146V690H262V151Z" />
<glyph unicode="K" glyph-name="K" horiz-adv-x="597" d="M256 319H177Q184 277 184 248V0H84V690H184V478Q184 435 177 400H255L458 690H567L372 408Q356 385 330 360V357Q358 333 378 305L580 0H469L256 319Z" />
<glyph unicode="L" glyph-name="L" horiz-adv-x="515" d="M182 148Q182 113 196 99T245 84H490L495 7Q398 -2 229 -2Q82 -2 82 134V690H182V148Z" />
<glyph unicode="M" glyph-name="M" horiz-adv-x="881" d="M761 690T771 680T783 649L811 0H711L687 607H667L527 116Q518 82 484 82H397Q362 82 353 116L212 607H193L170 0H71L97 649Q98 669 108 679T138 690H249Q266 690 276 682T291 656L408 252Q418 216 431
159H449Q461 212 473 253L589 656Q600 690 633 690H742Q761 690 771 680Z" />
<glyph unicode="N" glyph-name="N" horiz-adv-x="708" d="M624 39Q624 0 587 0H492Q476 0 466 7T449 31L234 501Q230 509 215 541T193 597H179Q184 557 184 501V0H84V651Q84 690 122 690H214Q230 690 240 683T258 659L467 201L481 170Q505 122 515 98H530Q525
158 525 205V690H624V39Z" />
<glyph unicode="O" glyph-name="O" horiz-adv-x="669" d="M438 703T497 670T583 559T610 345Q610 208 584 131T498 21T334 -13Q230 -13 171 20T86 131T59 345Q59 482 85 559T171 669T334 703Q438 703 497 670ZM268 614T232 589T180 507T164 345Q164 241 179 184T231
101T334 76Q400 76 436 101T489 183T505 345Q505 449 489 506T437 589T334 614Q268 614 232 589Z" />
<glyph unicode="P" glyph-name="P" horiz-adv-x="592" d="M411 699T459 680T529 614T550 481Q550 394 530 347T464 281T336 262Q261 262 184 271V0H84V690Q138 696 186 697T324 699Q411 699 459 680ZM372 349T399 360T437 400T449 481Q449 534 438 562T399 601T322
613Q222 613 184 612V348H322Q372 349 399 360Z" />
<glyph unicode="Q" glyph-name="Q" horiz-adv-x="671" d="M439 703T498 670T584 559T611 345Q611 208 585 131T499 21T335 -13Q231 -13 172 20T86 131T59 345Q59 482 85 559T171 669T335 703Q439 703 498 670ZM269 614T233 589T181 507T165 345Q165 241 180 184T232
101T335 76Q401 76 437 101T490 183T506 345Q506 449 490 506T438 589T335 614Q269 614 233 589ZM412 -87T566 -109L534 -209Q460 -193 396 -166T266 -102L293 -41Q412 -87 566 -109Z" />
<glyph unicode="R" glyph-name="R" horiz-adv-x="620" d="M578 0H471L412 215Q400 252 380 268T325 284Q220 284 183 285V0H84V690Q138 696 186 697T325 699Q409 699 458 681T530 620T553 499Q553 416 524 374T426 323V318Q455 310 479 285T513 218L578 0ZM373
371T400 382T440 419T452 493Q452 541 440 566T401 602T323 613Q221 613 183 612V370H323Q373 371 400 382Z" />
<glyph unicode="S" glyph-name="S" horiz-adv-x="563" d="M402 702T488 681L482 608L458 609Q352 613 284 613Q230 613 205 608T167 582T154 517Q154 466 172 445T237 412L374 374Q451 353 482 306T514 178Q514 99 491 59T417 3T279 -12Q169 -12 62 8L69 82Q225
77 281 77Q335 78 362 85T400 114T412 179Q412 216 404 236T378 266T330 285L190 324Q116 344 85 391T53 520Q53 598 76 637T147 689T280 702Q402 702 488 681Z" />
<glyph unicode="T" glyph-name="T" horiz-adv-x="584" d="M561 601H342V0H241V601H24V690H561V601Z" />
<glyph unicode="U" glyph-name="U" horiz-adv-x="666" d="M587 266Q587 164 563 103T484 15T337 -13Q242 -13 186 14T105 103T79 266V690H179V266Q179 194 193 153T241 94T333 76Q390 76 423 94T472 153T487 266V690H587V266Z" />
<glyph unicode="V" glyph-name="V" horiz-adv-x="612" d="M393 28Q389 16 379 8T355 0H257Q244 0 234 8T219 28L15 690H118L274 153Q279 134 293 77H320Q326 105 339 153L494 690H597L393 28Z" />
<glyph unicode="W" glyph-name="W" horiz-adv-x="951" d="M789 29Q785 16 775 8T750 0H639Q625 0 614 8T600 30L500 537Q490 589 486 615H465L460 589Q455 556 450 537L351 30Q349 17 338 9T312 0H200Q186 0 176 8T162 29L30 690H136L235 164Q241 132 244 97L247
76H270Q275 119 285 164L384 657Q387 672 397 681T422 690H529Q543 690 553 681T567 657L665 163Q673 123 680 76H703L709 118Q713 148 716 162L815 690H921L789 29Z" />
<glyph unicode="X" glyph-name="X" horiz-adv-x="615" d="M319 320H295L131 0H22L212 357L35 690H143L294 396H320L471 690H579L402 357L592 0H483L319 320Z" />
<glyph unicode="Y" glyph-name="Y" horiz-adv-x="574" d="M337 239V0H237V241L9 690H115L254 407Q264 387 272 361T284 327H291Q293 334 302 360T321 406L460 690H564L337 239Z" />
<glyph unicode="Z" glyph-name="Z" horiz-adv-x="568" d="M521 85V0H48V85L404 605H53V690H514V605L158 85H521Z" />
<glyph unicode="[" glyph-name="bracketleft" horiz-adv-x="332" d="M292 705H195Q188 705 184 701T180 689V-86Q180 -93 184 -97T195 -102H292V-165H147Q89 -165 89 -107V710Q89 736 105 752T147 768H292V705Z" />
<glyph unicode="\" glyph-name="backslash" horiz-adv-x="523" d="M498 -67H418L25 690H105L498 -67Z" />
<glyph unicode="]" glyph-name="bracketright" horiz-adv-x="332" d="M211 768T227 752T243 710V-107Q243 -133 227 -149T185 -165H40V-102H136Q143 -102 147 -98T152 -86V689Q152 696 148 700T136 705H40V768H185Q211 768 227 752Z" />
<glyph unicode="^" glyph-name="asciicircum" horiz-adv-x="433" d="M403 392L364 368L221 541H213L69 368L30 392L182 605H252L403 392Z" />
<glyph unicode="_" glyph-name="underscore" horiz-adv-x="439" d="M439 -73H0V0H439V-73Z" />
<glyph unicode="`" glyph-name="grave" horiz-adv-x="322" d="M265 580L233 535L33 652L88 726L265 580Z" />
<glyph unicode="a" glyph-name="a" horiz-adv-x="551" d="M396 501T438 465T480 340V0H404L393 77Q360 43 309 17T198 -9Q130 -9 90 27T49 129V180Q49 238 85 270T187 302H383V340Q382 385 362 402T286 419Q231 419 79 407L70 478Q125 488 191 494T307 501Q396
501 438 465ZM147 105T164 89T218 73Q255 73 299 90T383 142V229H205Q173 228 160 213T147 167V141Q147 105 164 89Z" />
<glyph unicode="b" glyph-name="b" horiz-adv-x="573" d="M435 501T478 441T521 246Q521 160 501 104T433 18T301 -12Q247 -12 183 -3T73 23V700H170V525Q170 458 160 414Q201 457 248 479T344 501Q435 501 478 441ZM338 69T366 85T407 139T421 246Q420 313 412
349T380 401T310 417Q276 417 246 401T169 349L170 84Q230 69 289 69Q338 69 366 85Z" />
<glyph unicode="c" glyph-name="c" horiz-adv-x="491" d="M325 501T369 495T447 476L434 414Q359 419 302 419Q245 419 213 404T167 351T153 244Q153 175 167 138T213 85T302 69Q384 69 446 80L455 15Q419 2 375 -5T285 -12Q198 -12 148 13T75 93T52 244Q52 340
75 395T148 476T285 501Q325 501 369 495Z" />
<glyph unicode="d" glyph-name="d" horiz-adv-x="575" d="M500 700V0H424L416 67Q375 32 326 10T224 -12Q134 -12 94 52T53 246Q53 341 73 397T134 477T239 501Q331 501 407 457Q403 500 403 553V700H500ZM153 178T163 140T196 87T257 72Q294 72 322 85T403 133V393Q355
406 326 411T263 417Q221 417 198 403T164 353T153 247Q153 178 163 140Z" />
<glyph unicode="e" glyph-name="e" horiz-adv-x="539" d="M365 69T471 81L480 17Q447 3 392 -4T287 -12Q201 -12 150 13T76 94T52 245Q52 341 75 397T148 477T278 501Q390 501 441 460T492 337Q492 269 463 233T373 197H154Q159 145 175 118T220 80T300 69Q365
69 471 81ZM234 419T207 406T167 362T152 272H347Q395 272 395 337Q394 382 370 400T283 419Q234 419 207 406Z" />
<glyph unicode="f" glyph-name="f" horiz-adv-x="385" d="M249 638T231 621T212 562V488H363V413H212V0H115V413H27V483L115 488V573Q115 644 149 680T260 717Q354 717 401 710L393 638H294Q249 638 231 621Z" />
<glyph unicode="g" glyph-name="g" horiz-adv-x="561" d="M535 436L466 429Q483 398 483 344Q483 288 463 254T397 204T271 188Q216 188 174 196Q164 179 164 163Q164 147 174 135T205 120L385 92Q454 82 483 49T513 -47Q513 -106 491 -139T419 -186T277 -200Q186
-200 135 -186T61 -140T38 -50Q38 -10 56 14T116 62Q85 87 85 132Q85 156 95 178T123 214Q89 232 74 263T59 343Q59 401 79 435T145 485T272 501Q346 501 389 488H540L535 436ZM339 261T366 279T393 344Q393 391 367 409T271 427Q201 427 174 409T147 344Q147 299
174 280T271 261Q339 261 366 279ZM418 -18T412 -7T389 10T335 21L178 41Q154 21 143 3T132 -42Q132 -76 144 -91T185 -112T276 -118Q335 -118 364 -112T406 -90T418 -42Q418 -18 412 -7Z" />
<glyph unicode="h" glyph-name="h" horiz-adv-x="583" d="M443 501T477 467T511 366V0H414V338Q414 384 401 401T352 419Q314 419 274 402T172 347V0H75V700H172L173 511Q173 452 166 416Q282 501 379 501Q443 501 477 467Z" />
<glyph unicode="i" glyph-name="i" horiz-adv-x="254" d="M178 696T178 668V612Q178 583 150 583H104Q76 583 76 612V668Q76 696 104 696H150Q178 696 178 668ZM175 0H79V488H175V0Z" />
<glyph unicode="j" glyph-name="j" horiz-adv-x="256" d="M180 696T180 668V612Q180 583 152 583H106Q77 583 77 612V668Q77 681 84 688T106 696H152Q180 696 180 668ZM177 -5Q177 -65 151 -117T78 -202L24 -160Q53 -123 66 -87T80 -5V488H177V-5Z" />
<glyph unicode="k" glyph-name="k" horiz-adv-x="517" d="M228 240H167Q172 197 172 164V0H75V700H172L173 393Q173 351 167 310H228L374 488H486L339 311Q326 293 303 275V273Q310 267 321 255T339 231L502 0H390L228 240Z" />
<glyph unicode="l" glyph-name="l" horiz-adv-x="302" d="M172 141Q172 79 236 79H281L292 4Q278 -2 250 -5T199 -9Q142 -9 109 24T76 119V700H173L172 141Z" />
<glyph unicode="m" glyph-name="m" horiz-adv-x="875" d="M736 501T769 467T803 366V0H708V338Q707 381 691 400T637 419Q604 419 574 404T486 347V0H393V338Q393 382 376 400T322 419Q290 419 260 404T171 348V0H75V488H155L160 414Q210 457 258 479T356 501Q456
501 480 416Q577 501 672 501Q736 501 769 467Z" />
<glyph unicode="n" glyph-name="n" horiz-adv-x="583" d="M444 501T477 467T511 366V0H414V338Q414 384 401 401T352 419Q314 419 275 402T171 346L172 0H75V488H157L163 414Q279 501 379 501Q444 501 477 467Z" />
<glyph unicode="o" glyph-name="o" horiz-adv-x="570" d="M371 501T421 476T495 394T518 243Q518 149 495 94T422 13T285 -13Q199 -13 149 12T75 93T52 243Q52 338 75 394T148 475T285 501Q371 501 421 476ZM233 419T205 404T165 351T153 243Q153 174 165 137T205
84T285 68Q337 68 365 83T405 136T417 243Q417 313 405 350T365 403T285 419Q233 419 205 404Z" />
<glyph unicode="p" glyph-name="p" horiz-adv-x="584" d="M451 501T491 436T531 241Q531 103 486 46T345 -12Q246 -12 168 37Q172 -13 171 -62V-199H75V488H155L162 413Q200 453 256 477T365 501Q451 501 491 436ZM362 72T385 86T420 136T431 242Q431 339 409
378T332 417Q295 417 259 400T171 346V98Q180 96 213 88T271 76T319 72Q362 72 385 86Z" />
<glyph unicode="q" glyph-name="q" horiz-adv-x="572" d="M326 501T390 492T499 465V-199H403L402 -39Q402 20 410 63Q319 -13 220 -13Q135 -13 94 48T52 243Q52 330 72 386T141 471T275 501Q326 501 390 492ZM152 148T173 110T253 72Q291 72 323 86T403 133V404Q343
419 283 419Q232 419 205 404T165 350T152 236Q152 148 173 110Z" />
<glyph unicode="r" glyph-name="r" horiz-adv-x="404" d="M388 501L377 410H347Q311 410 274 398T172 354V0H75V488H150L160 413Q270 501 365 501H388Z" />
<glyph unicode="s" glyph-name="s" horiz-adv-x="509" d="M283 501T342 497T449 484L441 414Q427 414 397 416Q373 417 338 418T256 419Q206 419 184 417T152 403T142 365Q142 342 149 331T169 315T211 301L349 267Q411 251 437 222T463 130Q463 71 441 41T375
0T251 -11Q149 -11 57 3L64 75Q120 70 231 70Q287 70 316 74T357 92T369 130Q369 151 361 162T339 179T295 192L159 226Q98 242 73 273T48 365Q48 419 67 448T125 489T234 501Q283 501 342 497Z" />
<glyph unicode="t" glyph-name="t" horiz-adv-x="388" d="M210 413V141Q210 107 224 93T274 79H345L356 4Q334 -2 300 -5T241 -9Q179 -9 147 26T114 128V413H25V483L114 488V631H210V488H361V413H210Z" />
<glyph unicode="u" glyph-name="u" horiz-adv-x="572" d="M497 488V0H420L413 67Q358 27 308 7T205 -13Q140 -13 106 21T72 122V488H169V150Q168 105 184 88T239 70Q273 70 309 85T401 135V488H497Z" />
<glyph unicode="v" glyph-name="v" horiz-adv-x="534" d="M344 24Q334 0 310 0H223Q212 0 203 6T190 24L16 488H119L233 152L260 68H273L286 106Q298 142 302 152L415 488H518L344 24Z" />
<glyph unicode="w" glyph-name="w" horiz-adv-x="826" d="M666 27Q658 0 629 0H542Q528 0 518 8T505 31L434 352L429 378Q422 416 419 430H407L391 352L321 31Q318 17 308 9T283 0H197Q183 0 174 7T161 27L23 488H123L217 136Q229 86 232 61H245Q257 111 262 136L334
458Q337 472 346 480T370 488H457Q471 488 480 480T493 457L564 136L576 82L581 61H594Q601 106 609 136L703 488H803L666 27Z" />
<glyph unicode="x" glyph-name="x" horiz-adv-x="533" d="M276 216H257L125 0H20L180 252L32 488H136L255 291H277L396 488H500L353 252L513 0H408L276 216Z" />
<glyph unicode="y" glyph-name="y" horiz-adv-x="533" d="M516 488L327 -23Q259 -203 103 -205L93 -141Q150 -124 183 -94T236 -18L243 0H223Q210 0 201 6T189 25L16 488H120L241 133Q253 102 258 73H272L292 133L412 488H516Z" />
<glyph unicode="z" glyph-name="z" horiz-adv-x="512" d="M464 79V0H48V79L353 409H52V488H460V409L156 79H464Z" />
<glyph unicode="{" glyph-name="braceleft" horiz-adv-x="323" d="M281 707Q231 707 213 689T194 626V453Q195 410 187 386T159 349T102 328Q158 311 177 286T198 207V-24Q198 -69 216 -86T285 -104V-165Q273 -166 252 -166Q176 -166 141 -132T105 -31V222Q105
247 99 259T83 277T44 294V362Q73 371 82 376T96 394T101 438V634Q101 700 136 734T248 769Q269 769 281 768V707Z" />
<glyph unicode="|" glyph-name="bar" horiz-adv-x="249" d="M159 -169H89V781H159V-169Z" />
<glyph unicode="}" glyph-name="braceright" horiz-adv-x="324" d="M55 769T76 769Q153 769 188 735T223 634V438Q223 407 227 395T241 377T280 362V294Q252 283 242 277T225 259T219 222V-31Q219 -98 184 -132T72 -166Q51 -166 39 -165V-104Q89 -104 107 -87T126
-24V207Q127 260 146 285T222 328Q185 335 165 348T137 386T130 453V626Q130 671 112 689T43 707V768Q55 769 76 769Z" />
<glyph unicode="~" glyph-name="asciitilde" horiz-adv-x="523" d="M173 351T200 343T268 320Q302 307 325 300T367 293Q386 293 393 305T400 346H450Q452 326 452 319Q452 270 430 245T372 223Q344 224 315 232T249 255Q216 268 195 274T157 280Q138 280 131
267T124 225H75Q73 245 73 254Q73 301 94 326T148 351Q173 351 200 343Z" />
<glyph unicode="&#xa0;" glyph-name="uni00A0" horiz-adv-x="222" />
<glyph unicode="&#xa1;" glyph-name="exclamdown" horiz-adv-x="261" d="M162 496T170 488T178 460V406Q178 387 171 379T143 371H119Q99 371 91 379T83 406V460Q83 480 91 488T119 496H143Q162 496 170 488ZM179 100V-194H82V100L92 283H169L179 100Z" />
<glyph unicode="&#xa2;" glyph-name="cent" horiz-adv-x="508" d="M385 95T297 93L287 0H238L247 94Q175 99 133 126T71 207T51 349Q51 444 74 499T147 580T285 605H293L301 690H351L343 602Q407 596 446 581L434 516Q385 522 335 522L304 174Q384 174 445 184L454
119Q385 95 297 93ZM147 262T171 223T255 177L284 523Q232 521 203 504T160 451T147 349Q147 262 171 223Z" />
<glyph unicode="&#xa3;" glyph-name="sterling" horiz-adv-x="571" d="M521 86V0H60V86Q103 106 120 144T138 238Q138 257 137 267L133 332H55V394H130L123 520Q119 595 140 634T203 688T315 702Q395 702 499 692L493 612Q417 615 317 615Q259 615 238 595T221
518L228 394H433L430 332H232L236 267L237 242Q237 185 221 149T165 81Q188 86 233 86H521Z" />
<glyph unicode="&#xa4;" glyph-name="currency" horiz-adv-x="592" d="M485 120L412 193Q362 154 296 154Q230 154 179 192L108 121L63 166L134 237Q98 289 98 351Q98 417 136 469L66 540L108 582L178 510Q229 549 296 549Q360 549 414 510L486 582L527 540L455
468Q493 416 493 351Q493 286 455 235L528 162L485 120ZM331 212T363 231T414 282T433 352Q433 390 415 422T364 473T296 492Q258 492 226 473T175 422T156 352Q156 315 174 283T225 231T294 212Q331 212 363 231Z" />
<glyph unicode="&#xa5;" glyph-name="yen" horiz-adv-x="621" d="M397 326H535V269H367L361 258V213H535V156H361V0H261V156H92L91 213H261V258L255 269H92L90 326H225L33 690H137L275 420Q284 401 294 374Q297 367 300 359T308 341H315Q322 357 326 370Q330 381
335 393T346 420L484 690H588L397 326Z" />
<glyph unicode="&#xa6;" glyph-name="brokenbar" horiz-adv-x="251" d="M160 381H90V781H160V381ZM160 -169H90V231H160V-169Z" />
<glyph unicode="&#xa7;" glyph-name="section" horiz-adv-x="545" d="M387 701T479 691L473 615Q430 618 386 619T267 621Q212 621 188 611T163 567Q163 536 179 518T227 482L383 394Q435 366 457 329T480 242Q480 205 469 156H399Q401 182 401 192Q401 238 385
267T329 319L161 416Q109 446 85 479T60 571Q60 624 82 653T148 692T261 703Q387 701 479 691ZM145 371T145 350Q145 302 160 273T217 221L385 125Q436 96 461 62T486 -32Q486 -89 462 -117T396 -155T285 -165Q157 -163 66 -153L74 -77Q167 -83 260 -84Q305 -84
329 -81T367 -66T382 -29Q384 2 368 21T321 59L164 146Q112 174 89 211T66 299Q66 339 76 383H146Q145 371 145 350Z" />
<glyph unicode="&#xa8;" glyph-name="dieresis" horiz-adv-x="413" d="M161 697T161 670V616Q161 602 155 596T135 589H103Q89 589 83 595T77 616V670Q77 697 103 697H135Q161 697 161 670ZM325 697T332 690T339 670V616Q339 589 312 589H280Q266 589 260 595T254
616V670Q254 697 280 697H312Q325 697 332 690Z" />
<glyph unicode="&#xa9;" glyph-name="copyright" horiz-adv-x="832" d="M516 703T598 657T728 529T776 345Q776 243 728 161T598 33T416 -13Q317 -13 235 33T104 161T56 345Q56 447 104 528T234 656T416 703Q516 703 598 657ZM333 652T263 612T151 502T109 345Q109
258 150 188T262 78T416 38Q500 38 570 78T682 188T723 345Q723 432 682 502T571 612T416 652Q333 652 263 612ZM467 565T496 562T556 551L548 496Q491 500 420 500Q374 500 349 486T312 439T301 347Q301 288 312 255T348 208T420 194Q510 194 559 200L566 145Q534
137 502 133T421 129Q349 129 307 150T245 218T226 347Q226 428 245 475T306 544T421 565Q467 565 496 562Z" />
<glyph unicode="&#xaa;" glyph-name="ordfeminine" horiz-adv-x="441" d="M312 609T341 584T371 498V273H313L305 333Q279 306 242 286T161 266Q116 266 89 289T61 354V392Q61 430 86 451T156 473H298V498Q298 523 285 535T238 548Q188 548 84 540L76 594Q179
609 253 609Q312 609 341 584ZM132 347T144 338T184 328Q211 328 242 341T298 374V432L179 423Q153 422 143 413T132 385V370Q132 347 144 338Z" />
<glyph unicode="&#xab;" glyph-name="guillemotleft" horiz-adv-x="491" d="M440 427L318 251L441 72L390 38L229 240V262L389 460L440 427ZM254 427L132 251L255 72L204 38L43 240V262L203 460L254 427Z" />
<glyph unicode="&#xac;" glyph-name="logicalnot" horiz-adv-x="590" d="M513 334V132H440V261H71V334H513Z" />
<glyph unicode="&#xad;" glyph-name="uni00AD" horiz-adv-x="441" d="M373 216H69V290H373V216Z" />
<glyph unicode="&#xae;" glyph-name="registered" horiz-adv-x="548" d="M335 702T385 672T466 592T496 480Q496 419 466 368T386 287T274 257Q213 257 162 287T81 368T51 480Q51 541 81 591T162 672T274 702Q335 702 385 672ZM325 289T368 314T437 384T463 480Q463
532 438 575T369 644T274 670Q223 670 180 645T111 576T85 480Q85 428 110 384T179 315T274 289Q325 289 368 314ZM357 468T367 434L396 354H349L323 432Q317 446 308 452T283 458H218V354H174V608Q209 611 283 611Q339 611 362 595T386 538Q386 509 373 494T328
474V472Q357 468 367 434ZM316 491T329 500T341 533Q342 559 329 567T282 576H218V490H282Q316 491 329 500Z" />
<glyph unicode="&#xaf;" glyph-name="overscore" horiz-adv-x="400" d="M341 606H59V677H341V606Z" />
<glyph unicode="&#xb0;" glyph-name="degree" horiz-adv-x="359" d="M215 703T245 686T293 640T311 576Q311 541 293 511T245 464T180 446Q145 446 115 463T67 511T49 576Q49 610 66 639T114 685T180 703Q215 703 245 686ZM150 645T130 626T110 576Q110 545 130
525T180 505Q209 505 229 525T250 576Q250 606 230 625T180 645Q150 645 130 626Z" />
<glyph unicode="&#xb1;" glyph-name="plusminus" horiz-adv-x="586" d="M514 397V325H329V194H256V325H72V397H256V528H330V397H514ZM72 137H514V65H72V137Z" />
<glyph unicode="&#xb2;" glyph-name="uni00B2" horiz-adv-x="424" d="M282 777T317 757T353 680Q353 648 334 615T274 540L155 424Q179 427 220 427L370 426L369 359H57V401Q57 421 69 433L190 551Q232 591 251 620T271 674Q271 698 254 705T197 713Q144 713 66
706L62 763Q134 777 202 777Q282 777 317 757Z" />
<glyph unicode="&#xb3;" glyph-name="uni00B3" horiz-adv-x="411" d="M279 778T311 758T343 683Q343 638 327 612T270 579V577Q317 570 335 544T354 467Q354 406 320 379T204 351Q149 351 55 363L60 419Q138 414 186 414Q237 414 257 429T277 483Q277 513 261
529T197 545H112V601H197Q242 602 256 619T270 665Q269 695 252 705T186 716Q119 716 67 711L63 766Q132 778 198 778Q279 778 311 758Z" />
<glyph unicode="&#xb4;" glyph-name="acute" horiz-adv-x="321" d="M278 661L79 544L47 588L224 735L278 661Z" />
<glyph unicode="&#xb5;" glyph-name="uni00B5" horiz-adv-x="578" d="M562 4Q517 -10 480 -10Q404 -10 404 76V94Q378 48 333 18T229 -12Q198 -12 169 -3V-70L158 -199H75V488H171V160Q171 111 188 94T246 76Q288 76 323 103T379 175T401 274V488H498V112Q498
85 503 74T524 63H555L562 4Z" />
<glyph unicode="&#xb6;" glyph-name="paragraph" horiz-adv-x="593" d="M381 702T423 698T498 685V0H426V636Q364 640 338 640V-210H266V201Q144 212 91 270T37 450Q37 543 68 598T165 677T344 702Q381 702 423 698Z" />
<glyph unicode="&#xb7;" glyph-name="middot" horiz-adv-x="242" d="M156 320T164 313T172 285V232Q172 212 164 204T136 196H105Q85 196 77 204T69 232V285Q69 305 77 312T105 320H136Q156 320 164 313Z" />
<glyph unicode="&#xb8;" glyph-name="cedilla" horiz-adv-x="236" d="M103 -40T129 -40Q169 -40 187 -53T205 -101Q205 -162 166 -197T62 -233Q52 -233 32 -231L48 -180Q87 -181 111 -162T136 -113Q136 -99 124 -94T77 -87L87 -42Q103 -40 129 -40Z" />
<glyph unicode="&#xb9;" glyph-name="uni00B9" horiz-adv-x="296" d="M218 359H143V663Q143 689 146 703L39 676L30 729L143 771H218V359Z" />
<glyph unicode="&#xba;" glyph-name="ordmasculine" horiz-adv-x="443" d="M283 609T319 592T371 538T387 436Q387 372 371 335T319 282T221 265Q159 265 124 281T72 335T56 436Q56 500 72 537T123 592T221 609Q283 609 319 592ZM187 549T168 539T141 505T131
436Q132 392 140 368T168 335T221 325Q256 325 275 334T302 368T311 436Q311 481 303 505T275 539T221 549Q187 549 168 539Z" />
<glyph unicode="&#xbb;" glyph-name="guillemotright" horiz-adv-x="491" d="M262 262V240L102 38L50 72L173 251L51 427L103 460L262 262ZM448 262V240L287 38L236 72L359 251L237 427L288 460L448 262Z" />
<glyph unicode="&#xbc;" glyph-name="onequarter" horiz-adv-x="867" d="M150 604T154 623L44 595L35 648L150 690H225V276H150V582Q150 604 154 623ZM648 690L207 0H139L580 690H648ZM827 101L779 95V0H708V94H519Q499 94 486 104T472 134Q472 147 479 162L601
414H674L557 174Q555 170 555 167Q555 161 560 157T574 153H708V268L721 334H779V153H827V101Z" />
<glyph unicode="&#xbd;" glyph-name="onehalf" horiz-adv-x="890" d="M225 276H150V582Q150 604 154 623L44 595L35 648L150 690H225V276ZM200 0H131L572 690H640L200 0ZM754 421T790 402T826 324Q826 291 807 258T746 184L623 65Q648 68 690 68L842 67V0H527V42Q527
62 539 74L662 193Q704 234 724 263T744 318Q744 342 726 349T668 357Q603 357 535 350L531 407Q606 421 673 421Q754 421 790 402Z" />
<glyph unicode="&#xbe;" glyph-name="threequarters" horiz-adv-x="959" d="M357 323T322 295T204 266Q142 266 54 277L58 333Q123 329 186 329Q239 329 259 344T280 398Q280 428 263 444T197 461L112 463V515L197 518Q243 519 257 535T272 580Q272 611 254 622T186
633Q114 633 66 630L62 685Q129 695 197 695Q254 695 286 686T331 657T345 600Q345 554 329 528T270 495V493Q318 487 337 461T357 386Q357 323 322 295ZM749 690L308 0H240L680 690H749ZM919 101L869 95V0H798V94H611Q591 94 577 104T563 134Q563 148 570 162L693
414H766L649 174Q647 168 647 167Q647 161 652 157T665 153H798V268L811 334H869V153H919V101Z" />
<glyph unicode="&#xbf;" glyph-name="questiondown" horiz-adv-x="500" d="M293 501T300 494T308 466V412Q308 392 301 384T273 376H249Q229 376 221 384T213 412V466Q213 486 221 493T249 501H273Q293 501 300 494ZM301 240T288 202T256 137T205 75Q171 37 156
12T140 -44Q140 -87 169 -108T262 -129Q319 -129 357 -127T430 -122Q438 -122 460 -120L465 -189Q458 -191 442 -193Q390 -203 352 -207T242 -211Q139 -211 89 -173T38 -56Q38 -7 59 27T123 105Q153 137 171 160T203 215T219 289H300Q301 240 288 202Z" />
<glyph unicode="&#xc0;" glyph-name="Agrave" horiz-adv-x="626" d="M450 208H175L111 0H9L225 663Q229 676 238 683T262 690H364Q377 690 387 683T400 663L617 0H514L450 208ZM423 295L343 557L326 613H299L283 557L202 295H423ZM374 762L342 717L142 834L197
908L374 762Z" />
<glyph unicode="&#xc1;" glyph-name="Aacute" horiz-adv-x="626" d="M450 208H175L111 0H9L225 663Q229 676 238 683T262 690H364Q377 690 387 683T400 663L617 0H514L450 208ZM423 295L343 557L326 613H299L283 557L202 295H423ZM469 843L270 726L238 770L415
917L469 843Z" />
<glyph unicode="&#xc2;" glyph-name="Acircumflex" horiz-adv-x="626" d="M450 208H175L111 0H9L225 663Q229 676 238 683T262 690H364Q377 690 387 683T400 663L617 0H514L450 208ZM423 295L343 557L326 613H299L283 557L202 295H423ZM480 761L447 720L317 816H309L180
720L148 761L278 890H349L480 761Z" />
<glyph unicode="&#xc3;" glyph-name="Atilde" horiz-adv-x="626" d="M450 208H175L111 0H9L225 663Q229 676 238 683T262 690H364Q377 690 387 683T400 663L617 0H514L450 208ZM423 295L343 557L326 613H299L283 557L202 295H423ZM253 872T271 865T312 846Q335
835 349 829T382 821Q386 820 394 820Q414 820 421 831T429 869H473Q475 851 475 843Q475 800 455 776T403 752Q375 752 354 759T304 783Q282 795 266 801T233 808Q212 808 205 795T197 754H153Q151 772 151 780Q151 828 173 852T231 874Q253 872 271 865Z" />
<glyph unicode="&#xc4;" glyph-name="Adieresis" horiz-adv-x="626" d="M450 208H175L111 0H9L225 663Q229 676 238 683T262 690H364Q377 690 387 683T400 663L617 0H514L450 208ZM423 295L343 557L326 613H299L283 557L202 295H423ZM267 864T267 837V783Q267
769 261 763T241 756H209Q195 756 189 762T183 783V837Q183 864 209 864H241Q267 864 267 837ZM431 864T438 857T445 837V783Q445 756 418 756H386Q372 756 366 762T360 783V837Q360 864 386 864H418Q431 864 438 857Z" />
<glyph unicode="&#xc5;" glyph-name="Aring" horiz-adv-x="626" d="M450 208H175L111 0H9L225 663Q229 676 238 683T262 690H364Q377 690 387 683T400 663L617 0H514L450 208ZM423 295L343 557L326 613H299L283 557L202 295H423ZM358 927T390 896T422 820Q422
775 390 745T313 714Q267 714 236 744T204 820Q204 865 236 896T313 927Q358 927 390 896ZM289 879T273 863T257 820Q257 794 273 778T313 762Q338 762 354 778T370 820Q370 847 354 863T313 879Q289 879 273 863Z" />
<glyph unicode="&#xc6;" glyph-name="AE" horiz-adv-x="915" d="M861 84L865 6Q802 1 736 0T568 -2Q515 -2 483 33T450 122V216H222L101 0H-4L329 577Q353 622 382 646T454 681T565 691Q759 691 865 684L861 605H608Q579 605 562 587T544 538V405L822 404V323L544
322V148Q544 114 559 99T608 84H861ZM450 299V552Q450 572 459 592T480 623H471Q443 607 417 562L269 299H450Z" />
<glyph unicode="&#xc7;" glyph-name="Ccedilla" horiz-adv-x="572" d="M396 702T437 698T523 682L513 605Q433 613 332 613Q267 613 231 588T180 506T164 345Q164 242 179 185T231 102T332 77Q400 77 443 79T527 88L537 12Q492 -1 446 -6T332 -12Q230 -12 171
22T86 134T59 345Q59 478 85 555T171 667T332 702Q396 702 437 698ZM293 -52T319 -52Q359 -52 377 -65T395 -113Q395 -174 356 -209T252 -245Q242 -245 222 -243L238 -192Q277 -193 301 -174T326 -125Q326 -111 314 -106T267 -99L277 -54Q293 -52 319 -52Z" />
<glyph unicode="&#xc8;" glyph-name="Egrave" horiz-adv-x="562" d="M508 83L513 6Q453 1 386 0T217 -2Q153 -2 116 31T78 122V568Q79 625 116 658T217 692Q318 692 385 691T513 684L508 606H234Q204 606 192 592T179 542V404H470V323H179V147Q179 112 191 98T234
83H508ZM371 782L339 737L139 854L194 928L371 782Z" />
<glyph unicode="&#xc9;" glyph-name="Eacute" horiz-adv-x="562" d="M508 83L513 6Q453 1 386 0T217 -2Q153 -2 116 31T78 122V568Q79 625 116 658T217 692Q318 692 385 691T513 684L508 606H234Q204 606 192 592T179 542V404H470V323H179V147Q179 112 191 98T234
83H508ZM465 863L266 746L234 790L411 937L465 863Z" />
<glyph unicode="&#xca;" glyph-name="Ecircumflex" horiz-adv-x="562" d="M508 83L513 6Q453 1 386 0T217 -2Q153 -2 116 31T78 122V568Q79 625 116 658T217 692Q318 692 385 691T513 684L508 606H234Q204 606 192 592T179 542V404H470V323H179V147Q179 112 191
98T234 83H508ZM476 781L443 740L313 836H305L176 740L144 781L274 910H345L476 781Z" />
<glyph unicode="&#xcb;" glyph-name="Edieresis" horiz-adv-x="562" d="M508 83L513 6Q453 1 386 0T217 -2Q153 -2 116 31T78 122V568Q79 625 116 658T217 692Q318 692 385 691T513 684L508 606H234Q204 606 192 592T179 542V404H470V323H179V147Q179 112 191
98T234 83H508ZM263 884T263 857V803Q263 789 257 783T237 776H205Q191 776 185 782T179 803V857Q179 884 205 884H237Q263 884 263 857ZM427 884T434 877T441 857V803Q441 776 414 776H382Q368 776 362 782T356 803V857Q356 884 382 884H414Q427 884 434 877Z"
/>
<glyph unicode="&#xcc;" glyph-name="Igrave" horiz-adv-x="268" d="M184 0H84V690H184V0ZM195 771L163 726L-37 843L18 917L195 771Z" />
<glyph unicode="&#xcd;" glyph-name="Iacute" horiz-adv-x="268" d="M184 0H84V690H184V0ZM289 852L90 735L58 779L235 926L289 852Z" />
<glyph unicode="&#xce;" glyph-name="Icircumflex" horiz-adv-x="268" d="M184 0H84V690H184V0ZM300 770L267 729L137 825H129L0 729L-32 770L98 899H169L300 770Z" />
<glyph unicode="&#xcf;" glyph-name="Idieresis" horiz-adv-x="268" d="M184 0H84V690H184V0ZM87 873T87 846V792Q87 778 81 772T61 765H29Q15 765 9 771T3 792V846Q3 873 29 873H61Q87 873 87 846ZM251 873T258 866T265 846V792Q265 765 238 765H206Q192 765
186 771T180 792V846Q180 873 206 873H238Q251 873 258 866Z" />
<glyph unicode="&#xd0;" glyph-name="Eth" horiz-adv-x="670" d="M440 699T498 666T583 557T610 345Q610 210 584 134T499 24T338 -9Q220 -9 89 0V338H22V393H89V690Q220 699 338 699Q440 699 498 666ZM402 78T438 103T489 185T505 345Q505 447 490 504T438 587T338
612Q278 612 188 610V393H334V338H188V80Q274 78 338 78Q402 78 438 103Z" />
<glyph unicode="&#xd1;" glyph-name="Ntilde" horiz-adv-x="708" d="M624 39Q624 0 587 0H492Q476 0 466 7T449 31L234 501Q230 509 215 541T193 597H179Q184 557 184 501V0H84V651Q84 690 122 690H214Q230 690 240 683T258 659L467 201L481 170Q505 122 515 98H530Q525
158 525 205V690H624V39ZM305 881T323 874T364 855Q387 844 401 838T434 830Q438 829 446 829Q466 829 473 840T481 878H525Q527 860 527 852Q527 809 507 785T455 761Q427 761 406 768T356 792Q334 804 318 810T285 817Q264 817 257 804T249 763H205Q203 781 203
789Q203 837 225 861T283 883Q305 881 323 874Z" />
<glyph unicode="&#xd2;" glyph-name="Ograve" horiz-adv-x="669" d="M438 703T497 670T583 559T610 345Q610 208 584 131T498 21T334 -13Q230 -13 171 20T86 131T59 345Q59 482 85 559T171 669T334 703Q438 703 497 670ZM268 614T232 589T180 507T164 345Q164
241 179 184T231 101T334 76Q400 76 436 101T489 183T505 345Q505 449 489 506T437 589T334 614Q268 614 232 589ZM397 771L365 726L165 843L220 917L397 771Z" />
<glyph unicode="&#xd3;" glyph-name="Oacute" horiz-adv-x="669" d="M438 703T497 670T583 559T610 345Q610 208 584 131T498 21T334 -13Q230 -13 171 20T86 131T59 345Q59 482 85 559T171 669T334 703Q438 703 497 670ZM268 614T232 589T180 507T164 345Q164
241 179 184T231 101T334 76Q400 76 436 101T489 183T505 345Q505 449 489 506T437 589T334 614Q268 614 232 589ZM492 852L293 735L261 779L438 926L492 852Z" />
<glyph unicode="&#xd4;" glyph-name="Ocircumflex" horiz-adv-x="669" d="M438 703T497 670T583 559T610 345Q610 208 584 131T498 21T334 -13Q230 -13 171 20T86 131T59 345Q59 482 85 559T171 669T334 703Q438 703 497 670ZM268 614T232 589T180 507T164 345Q164
241 179 184T231 101T334 76Q400 76 436 101T489 183T505 345Q505 449 489 506T437 589T334 614Q268 614 232 589ZM503 770L470 729L340 825H332L203 729L171 770L301 899H372L503 770Z" />
<glyph unicode="&#xd5;" glyph-name="Otilde" horiz-adv-x="669" d="M438 703T497 670T583 559T610 345Q610 208 584 131T498 21T334 -13Q230 -13 171 20T86 131T59 345Q59 482 85 559T171 669T334 703Q438 703 497 670ZM268 614T232 589T180 507T164 345Q164
241 179 184T231 101T334 76Q400 76 436 101T489 183T505 345Q505 449 489 506T437 589T334 614Q268 614 232 589ZM276 881T294 874T335 855Q358 844 372 838T405 830Q409 829 417 829Q437 829 444 840T452 878H496Q498 860 498 852Q498 809 478 785T426 761Q398
761 377 768T327 792Q305 804 289 810T256 817Q235 817 228 804T220 763H176Q174 781 174 789Q174 837 196 861T254 883Q276 881 294 874Z" />
<glyph unicode="&#xd6;" glyph-name="Odieresis" horiz-adv-x="669" d="M438 703T497 670T583 559T610 345Q610 208 584 131T498 21T334 -13Q230 -13 171 20T86 131T59 345Q59 482 85 559T171 669T334 703Q438 703 497 670ZM268 614T232 589T180 507T164 345Q164
241 179 184T231 101T334 76Q400 76 436 101T489 183T505 345Q505 449 489 506T437 589T334 614Q268 614 232 589ZM290 873T290 846V792Q290 778 284 772T264 765H232Q218 765 212 771T206 792V846Q206 873 232 873H264Q290 873 290 846ZM454 873T461 866T468 846V792Q468
765 441 765H409Q395 765 389 771T383 792V846Q383 873 409 873H441Q454 873 461 866Z" />
<glyph unicode="&#xd7;" glyph-name="multiply" horiz-adv-x="484" d="M300 290L446 158L399 101L244 240L90 101L42 158L189 290L42 422L90 479L244 340L399 479L446 422L300 290Z" />
<glyph unicode="&#xd8;" glyph-name="Oslash" horiz-adv-x="669" d="M563 625T586 550T610 345Q610 208 584 131T498 21T334 -13Q256 -13 203 6L173 -59L123 -38L155 31Q104 68 82 143T59 345Q59 482 85 559T171 669T334 703Q411 703 461 686L492 751L543 731L510
662Q563 625 586 550ZM164 266T173 214T202 131L421 598Q388 614 334 614Q268 614 232 589T180 507T164 345Q164 266 173 214ZM400 76T436 101T489 183T505 345Q505 427 496 479T464 562L244 93Q278 76 334 76Q400 76 436 101Z" />
<glyph unicode="&#xd9;" glyph-name="Ugrave" horiz-adv-x="666" d="M587 266Q587 164 563 103T484 15T337 -13Q242 -13 186 14T105 103T79 266V690H179V266Q179 194 193 153T241 94T333 76Q390 76 423 94T472 153T487 266V690H587V266ZM395 771L363 726L163 843L218
917L395 771Z" />
<glyph unicode="&#xda;" glyph-name="Uacute" horiz-adv-x="666" d="M587 266Q587 164 563 103T484 15T337 -13Q242 -13 186 14T105 103T79 266V690H179V266Q179 194 193 153T241 94T333 76Q390 76 423 94T472 153T487 266V690H587V266ZM489 852L290 735L258 779L435
926L489 852Z" />
<glyph unicode="&#xdb;" glyph-name="Ucircumflex" horiz-adv-x="666" d="M587 266Q587 164 563 103T484 15T337 -13Q242 -13 186 14T105 103T79 266V690H179V266Q179 194 193 153T241 94T333 76Q390 76 423 94T472 153T487 266V690H587V266ZM500 770L467 729L337
825H329L200 729L168 770L298 899H369L500 770Z" />
<glyph unicode="&#xdc;" glyph-name="Udieresis" horiz-adv-x="666" d="M587 266Q587 164 563 103T484 15T337 -13Q242 -13 186 14T105 103T79 266V690H179V266Q179 194 193 153T241 94T333 76Q390 76 423 94T472 153T487 266V690H587V266ZM287 873T287 846V792Q287
778 281 772T261 765H229Q215 765 209 771T203 792V846Q203 873 229 873H261Q287 873 287 846ZM451 873T458 866T465 846V792Q465 765 438 765H406Q392 765 386 771T380 792V846Q380 873 406 873H438Q451 873 458 866Z" />
<glyph unicode="&#xdd;" glyph-name="Yacute" horiz-adv-x="574" d="M337 239V0H237V241L9 690H115L254 407Q264 387 272 361T284 327H291Q293 334 302 360T321 406L460 690H564L337 239ZM444 840L245 723L213 767L390 914L444 840Z" />
<glyph unicode="&#xde;" glyph-name="Thorn" horiz-adv-x="594" d="M412 570T460 551T529 484T550 348Q550 261 530 214T464 147T336 128Q253 128 184 136V0H84V690H184V568Q222 570 325 570Q412 570 460 551ZM372 215T399 226T437 265T449 348Q449 403 438 432T399
472T322 484Q222 484 184 483V214H322Q372 215 399 226Z" />
<glyph unicode="&#xdf;" glyph-name="germandbls" horiz-adv-x="680" d="M607 235T626 207T645 127Q645 72 626 42T568 1T465 -11Q393 -11 306 0L312 73Q373 68 445 68Q488 69 509 73T540 90T551 132Q551 151 545 162T526 181T486 203L385 251Q304 290 304 365Q304
396 316 417T347 452T400 487L421 499Q456 522 469 539T482 584Q482 615 455 629T348 644Q293 644 264 635T223 603T211 534V0H114V412H26V487L114 488V545Q114 619 140 657T214 709T344 723Q429 723 478 711T550 669T573 586Q573 546 556 517T489 455Q470 443
452 433Q420 414 408 402T396 368Q396 346 410 335T461 305L560 258Q607 235 626 207Z" />
<glyph unicode="&#xe0;" glyph-name="agrave" horiz-adv-x="551" d="M396 501T438 465T480 340V0H404L393 77Q360 43 309 17T198 -9Q130 -9 90 27T49 129V180Q49 238 85 270T187 302H383V340Q382 385 362 402T286 419Q231 419 79 407L70 478Q125 488 191 494T307
501Q396 501 438 465ZM147 105T164 89T218 73Q255 73 299 90T383 142V229H205Q173 228 160 213T147 167V141Q147 105 164 89ZM335 591L303 546L103 663L158 737L335 591Z" />
<glyph unicode="&#xe1;" glyph-name="aacute" horiz-adv-x="551" d="M396 501T438 465T480 340V0H404L393 77Q360 43 309 17T198 -9Q130 -9 90 27T49 129V180Q49 238 85 270T187 302H383V340Q382 385 362 402T286 419Q231 419 79 407L70 478Q125 488 191 494T307
501Q396 501 438 465ZM147 105T164 89T218 73Q255 73 299 90T383 142V229H205Q173 228 160 213T147 167V141Q147 105 164 89ZM430 672L231 555L199 599L376 746L430 672Z" />
<glyph unicode="&#xe2;" glyph-name="acircumflex" horiz-adv-x="551" d="M396 501T438 465T480 340V0H404L393 77Q360 43 309 17T198 -9Q130 -9 90 27T49 129V180Q49 238 85 270T187 302H383V340Q382 385 362 402T286 419Q231 419 79 407L70 478Q125 488 191
494T307 501Q396 501 438 465ZM147 105T164 89T218 73Q255 73 299 90T383 142V229H205Q173 228 160 213T147 167V141Q147 105 164 89ZM441 590L408 549L278 645H270L141 549L109 590L239 719H310L441 590Z" />
<glyph unicode="&#xe3;" glyph-name="atilde" horiz-adv-x="551" d="M396 501T438 465T480 340V0H404L393 77Q360 43 309 17T198 -9Q130 -9 90 27T49 129V180Q49 238 85 270T187 302H383V340Q382 385 362 402T286 419Q231 419 79 407L70 478Q125 488 191 494T307
501Q396 501 438 465ZM147 105T164 89T218 73Q255 73 299 90T383 142V229H205Q173 228 160 213T147 167V141Q147 105 164 89ZM215 700T233 693T274 674Q297 663 311 657T344 649Q348 648 356 648Q376 648 383 659T391 697H435Q437 679 437 671Q437 628 417 604T365
580Q337 580 316 587T266 611Q244 623 228 629T195 636Q174 636 167 623T159 582H115Q113 600 113 608Q113 656 135 680T193 702Q215 700 233 693Z" />
<glyph unicode="&#xe4;" glyph-name="adieresis" horiz-adv-x="551" d="M396 501T438 465T480 340V0H404L393 77Q360 43 309 17T198 -9Q130 -9 90 27T49 129V180Q49 238 85 270T187 302H383V340Q382 385 362 402T286 419Q231 419 79 407L70 478Q125 488 191 494T307
501Q396 501 438 465ZM147 105T164 89T218 73Q255 73 299 90T383 142V229H205Q173 228 160 213T147 167V141Q147 105 164 89ZM228 949T228 922V868Q228 854 222 848T202 841H170Q156 841 150 847T144 868V922Q144 949 170 949H202Q228 949 228 922ZM392 949T399
942T406 922V868Q406 841 379 841H347Q333 841 327 847T321 868V922Q321 949 347 949H379Q392 949 399 942Z" />
<glyph unicode="&#xe5;" glyph-name="aring" horiz-adv-x="551" d="M396 501T438 465T480 340V0H404L393 77Q360 43 309 17T198 -9Q130 -9 90 27T49 129V180Q49 238 85 270T187 302H383V340Q382 385 362 402T286 419Q231 419 79 407L70 478Q125 488 191 494T307
501Q396 501 438 465ZM147 105T164 89T218 73Q255 73 299 90T383 142V229H205Q173 228 160 213T147 167V141Q147 105 164 89ZM320 756T352 725T384 649Q384 604 352 574T275 543Q229 543 198 573T166 649Q166 694 198 725T275 756Q320 756 352 725ZM251 708T235
692T219 649Q219 623 235 607T275 591Q300 591 316 607T332 649Q332 676 316 692T275 708Q251 708 235 692Z" />
<glyph unicode="&#xe6;" glyph-name="ae" horiz-adv-x="870" d="M697 69T801 81L810 17Q778 3 723 -4T618 -12Q533 -12 483 12T407 91Q375 53 320 22T198 -9Q130 -9 90 27T49 129V180Q49 238 85 270T187 302H383V340Q383 385 363 402T286 419Q231 419 79 407L70
478Q125 488 191 494T307 501Q357 501 391 491T447 456Q474 480 514 490T609 501Q720 501 771 460T822 337Q823 269 792 233T699 197H485Q490 145 506 118T551 80T630 69Q697 69 801 81ZM564 419T537 406T498 362T483 272H672Q725 272 725 337Q725 381 700 400T613
419Q564 419 537 406ZM256 73T302 91T390 147Q384 177 382 229H205Q173 228 160 213T147 167V141Q147 105 164 89T218 73Q256 73 302 91Z" />
<glyph unicode="&#xe7;" glyph-name="ccedilla" horiz-adv-x="491" d="M325 501T369 495T447 476L434 414Q359 419 302 419Q245 419 213 404T167 351T153 244Q153 175 167 138T213 85T302 69Q384 69 446 80L455 15Q419 2 375 -5T285 -12Q198 -12 148 13T75 93T52
244Q52 340 75 395T148 476T285 501Q325 501 369 495ZM247 -52T273 -52Q313 -52 331 -65T349 -113Q349 -174 310 -209T206 -245Q196 -245 176 -243L192 -192Q231 -193 255 -174T280 -125Q280 -111 268 -106T221 -99L231 -54Q247 -52 273 -52Z" />
<glyph unicode="&#xe8;" glyph-name="egrave" horiz-adv-x="539" d="M365 69T471 81L480 17Q447 3 392 -4T287 -12Q201 -12 150 13T76 94T52 245Q52 341 75 397T148 477T278 501Q390 501 441 460T492 337Q492 269 463 233T373 197H154Q159 145 175 118T220 80T300
69Q365 69 471 81ZM234 419T207 406T167 362T152 272H347Q395 272 395 337Q394 382 370 400T283 419Q234 419 207 406ZM343 591L311 546L111 663L166 737L343 591Z" />
<glyph unicode="&#xe9;" glyph-name="eacute" horiz-adv-x="539" d="M365 69T471 81L480 17Q447 3 392 -4T287 -12Q201 -12 150 13T76 94T52 245Q52 341 75 397T148 477T278 501Q390 501 441 460T492 337Q492 269 463 233T373 197H154Q159 145 175 118T220 80T300
69Q365 69 471 81ZM234 419T207 406T167 362T152 272H347Q395 272 395 337Q394 382 370 400T283 419Q234 419 207 406ZM437 672L238 555L206 599L383 746L437 672Z" />
<glyph unicode="&#xea;" glyph-name="ecircumflex" horiz-adv-x="539" d="M365 69T471 81L480 17Q447 3 392 -4T287 -12Q201 -12 150 13T76 94T52 245Q52 341 75 397T148 477T278 501Q390 501 441 460T492 337Q492 269 463 233T373 197H154Q159 145 175 118T220
80T300 69Q365 69 471 81ZM234 419T207 406T167 362T152 272H347Q395 272 395 337Q394 382 370 400T283 419Q234 419 207 406ZM448 590L415 549L285 645H277L148 549L116 590L246 719H317L448 590Z" />
<glyph unicode="&#xeb;" glyph-name="edieresis" horiz-adv-x="539" d="M365 69T471 81L480 17Q447 3 392 -4T287 -12Q201 -12 150 13T76 94T52 245Q52 341 75 397T148 477T278 501Q390 501 441 460T492 337Q492 269 463 233T373 197H154Q159 145 175 118T220
80T300 69Q365 69 471 81ZM234 419T207 406T167 362T152 272H347Q395 272 395 337Q394 382 370 400T283 419Q234 419 207 406ZM235 949T235 922V868Q235 854 229 848T209 841H177Q163 841 157 847T151 868V922Q151 949 177 949H209Q235 949 235 922ZM399 949T406
942T413 922V868Q413 841 386 841H354Q340 841 334 847T328 868V922Q328 949 354 949H386Q399 949 406 942Z" />
<glyph unicode="&#xec;" glyph-name="igrave" horiz-adv-x="255" d="M176 0H79V488H176V0ZM445 592L413 547L213 664L268 738L445 592Z" />
<glyph unicode="&#xed;" glyph-name="iacute" horiz-adv-x="255" d="M176 0H79V488H176V0ZM283 673L84 556L52 600L229 747L283 673Z" />
<glyph unicode="&#xee;" glyph-name="icircumflex" horiz-adv-x="255" d="M176 0H79V488H176V0ZM550 591L517 550L387 646H379L250 550L218 591L348 720H419L550 591Z" />
<glyph unicode="&#xef;" glyph-name="idieresis" horiz-adv-x="255" d="M176 0H79V488H176V0ZM337 950T337 923V869Q337 855 331 849T311 842H279Q265 842 259 848T253 869V923Q253 950 279 950H311Q337 950 337 923ZM501 950T508 943T515 923V869Q515 842 488
842H456Q442 842 436 848T430 869V923Q430 950 456 950H488Q501 950 508 943Z" />
<glyph unicode="&#xf0;" glyph-name="eth" horiz-adv-x="561" d="M501 515T501 283Q501 186 482 122T414 23T276 -13Q161 -13 107 42T53 218Q53 334 100 391T258 449Q332 449 389 416Q369 516 315 569L240 510L206 552L269 602Q209 631 119 628L130 698L155 699Q258
699 335 654L412 715L447 671L382 621Q501 515 501 283ZM329 68T355 92T391 162T400 288Q400 310 398 348Q344 367 274 367Q208 367 181 331T154 219Q154 136 182 102T277 68Q329 68 355 92Z" />
<glyph unicode="&#xf1;" glyph-name="ntilde" horiz-adv-x="583" d="M444 501T477 467T511 366V0H414V338Q414 384 401 401T352 419Q314 419 275 402T171 346L172 0H75V488H157L163 414Q279 501 379 501Q444 501 477 467ZM245 700T263 693T304 674Q327 663 341
657T374 649Q378 648 386 648Q406 648 413 659T421 697H465Q467 679 467 671Q467 628 447 604T395 580Q367 580 346 587T296 611Q274 623 258 629T225 636Q204 636 197 623T189 582H145Q143 600 143 608Q143 656 165 680T223 702Q245 700 263 693Z" />
<glyph unicode="&#xf2;" glyph-name="ograve" horiz-adv-x="570" d="M371 501T421 476T495 394T518 243Q518 149 495 94T422 13T285 -13Q199 -13 149 12T75 93T52 243Q52 338 75 394T148 475T285 501Q371 501 421 476ZM233 419T205 404T165 351T153 243Q153 174
165 137T205 84T285 68Q337 68 365 83T405 136T417 243Q417 313 405 350T365 403T285 419Q233 419 205 404ZM347 586L315 541L115 658L170 732L347 586Z" />
<glyph unicode="&#xf3;" glyph-name="oacute" horiz-adv-x="570" d="M371 501T421 476T495 394T518 243Q518 149 495 94T422 13T285 -13Q199 -13 149 12T75 93T52 243Q52 338 75 394T148 475T285 501Q371 501 421 476ZM233 419T205 404T165 351T153 243Q153 174
165 137T205 84T285 68Q337 68 365 83T405 136T417 243Q417 313 405 350T365 403T285 419Q233 419 205 404ZM442 667L243 550L211 594L388 741L442 667Z" />
<glyph unicode="&#xf4;" glyph-name="ocircumflex" horiz-adv-x="570" d="M371 501T421 476T495 394T518 243Q518 149 495 94T422 13T285 -13Q199 -13 149 12T75 93T52 243Q52 338 75 394T148 475T285 501Q371 501 421 476ZM233 419T205 404T165 351T153 243Q153
174 165 137T205 84T285 68Q337 68 365 83T405 136T417 243Q417 313 405 350T365 403T285 419Q233 419 205 404ZM453 585L420 544L290 640H282L153 544L121 585L251 714H322L453 585Z" />
<glyph unicode="&#xf5;" glyph-name="otilde" horiz-adv-x="570" d="M371 501T421 476T495 394T518 243Q518 149 495 94T422 13T285 -13Q199 -13 149 12T75 93T52 243Q52 338 75 394T148 475T285 501Q371 501 421 476ZM233 419T205 404T165 351T153 243Q153 174
165 137T205 84T285 68Q337 68 365 83T405 136T417 243Q417 313 405 350T365 403T285 419Q233 419 205 404ZM227 952T245 945T286 926Q309 915 323 909T356 901Q360 900 368 900Q388 900 395 911T403 949H447Q449 931 449 923Q449 880 429 856T377 832Q349 832
328 839T278 863Q256 875 240 881T207 888Q186 888 179 875T171 834H127Q125 852 125 860Q125 908 147 932T205 954Q227 952 245 945Z" />
<glyph unicode="&#xf6;" glyph-name="odieresis" horiz-adv-x="570" d="M371 501T421 476T495 394T518 243Q518 149 495 94T422 13T285 -13Q199 -13 149 12T75 93T52 243Q52 338 75 394T148 475T285 501Q371 501 421 476ZM233 419T205 404T165 351T153 243Q153
174 165 137T205 84T285 68Q337 68 365 83T405 136T417 243Q417 313 405 350T365 403T285 419Q233 419 205 404ZM240 944T240 917V863Q240 849 234 843T214 836H182Q168 836 162 842T156 863V917Q156 944 182 944H214Q240 944 240 917ZM404 944T411 937T418 917V863Q418
836 391 836H359Q345 836 339 842T333 863V917Q333 944 359 944H391Q404 944 411 937Z" />
<glyph unicode="&#xf7;" glyph-name="divide" horiz-adv-x="567" d="M315 529T322 521T330 493V447Q330 428 323 421T295 413H270Q250 413 243 420T235 447V493Q235 513 242 521T270 529H295Q315 529 322 521ZM505 259H62V331H505V259ZM315 176T322 168T330 140V95Q330
75 323 68T295 60H270Q250 60 243 67T235 95V140Q235 160 242 168T270 176H295Q315 176 322 168Z" />
<glyph unicode="&#xf8;" glyph-name="oslash" horiz-adv-x="570" d="M470 452T494 396T518 243Q518 149 495 94T422 13T285 -13Q233 -13 194 -4L159 -78L116 -57L148 12Q97 38 75 93T52 243Q52 338 75 394T148 475T285 501Q332 501 372 493L405 564L448 543L417
477Q470 452 494 396ZM153 186T161 151T188 97L335 414Q318 419 285 419Q233 419 205 404T165 351T153 243Q153 186 161 151ZM337 68T365 83T405 136T417 243Q417 304 408 340T378 394L230 74Q252 68 285 68Q337 68 365 83Z" />
<glyph unicode="&#xf9;" glyph-name="ugrave" horiz-adv-x="572" d="M497 488V0H420L413 67Q358 27 308 7T205 -13Q140 -13 106 21T72 122V488H169V150Q168 105 184 88T239 70Q273 70 309 85T401 135V488H497ZM347 595L315 550L115 667L170 741L347 595Z" />
<glyph unicode="&#xfa;" glyph-name="uacute" horiz-adv-x="572" d="M497 488V0H420L413 67Q358 27 308 7T205 -13Q140 -13 106 21T72 122V488H169V150Q168 105 184 88T239 70Q273 70 309 85T401 135V488H497ZM441 676L242 559L210 603L387 750L441 676Z" />
<glyph unicode="&#xfb;" glyph-name="ucircumflex" horiz-adv-x="572" d="M497 488V0H420L413 67Q358 27 308 7T205 -13Q140 -13 106 21T72 122V488H169V150Q168 105 184 88T239 70Q273 70 309 85T401 135V488H497ZM452 594L419 553L289 649H281L152 553L120 594L250
723H321L452 594Z" />
<glyph unicode="&#xfc;" glyph-name="udieresis" horiz-adv-x="572" d="M497 488V0H420L413 67Q358 27 308 7T205 -13Q140 -13 106 21T72 122V488H169V150Q168 105 184 88T239 70Q273 70 309 85T401 135V488H497ZM239 697T239 670V616Q239 602 233 596T213 589H181Q167
589 161 595T155 616V670Q155 697 181 697H213Q239 697 239 670ZM403 697T410 690T417 670V616Q417 589 390 589H358Q344 589 338 595T332 616V670Q332 697 358 697H390Q403 697 410 690Z" />
<glyph unicode="&#xfd;" glyph-name="yacute" horiz-adv-x="533" d="M516 488L327 -23Q259 -203 103 -205L93 -141Q150 -124 183 -94T236 -18L243 0H223Q210 0 201 6T189 25L16 488H120L241 133Q253 102 258 73H272L292 133L412 488H516ZM424 673L225 556L193
600L370 747L424 673Z" />
<glyph unicode="&#xfe;" glyph-name="thorn" horiz-adv-x="576" d="M441 500T481 439T522 240Q522 145 504 90T446 11T343 -13Q250 -13 169 29Q172 -18 172 -62V-199H75V700H172V537Q172 479 168 434Q250 500 346 500Q441 500 481 439ZM353 67T376 83T411 136T422
241Q422 309 411 347T377 402T315 418Q283 418 249 402T172 355V100Q217 83 249 75T311 67Q353 67 376 83Z" />
<glyph unicode="&#xff;" glyph-name="ydieresis" horiz-adv-x="533" d="M516 488L327 -23Q259 -203 103 -205L93 -141Q150 -124 183 -94T236 -18L243 0H223Q210 0 201 6T189 25L16 488H120L241 133Q253 102 258 73H272L292 133L412 488H516ZM222 950T222 923V869Q222
855 216 849T196 842H164Q150 842 144 848T138 869V923Q138 950 164 950H196Q222 950 222 923ZM386 950T393 943T400 923V869Q400 842 373 842H341Q327 842 321 848T315 869V923Q315 950 341 950H373Q386 950 393 943Z" />
<glyph unicode="&#x2013;" glyph-name="endash" horiz-adv-x="586" d="M517 216H69V290H517V216Z" />
<glyph unicode="&#x2014;" glyph-name="emdash" horiz-adv-x="889" d="M819 216H69V290H819V216Z" />
<glyph unicode="&#x2018;" glyph-name="quoteleft" horiz-adv-x="221" d="M77 491T70 498T62 524V582Q63 665 100 729L145 717Q135 664 135 605Q148 605 155 598T161 577V524Q160 505 152 498T124 491H96Q77 491 70 498Z" />
<glyph unicode="&#x2019;" glyph-name="quoteright" horiz-adv-x="218" d="M143 722T150 715T157 690L158 631Q157 552 120 484L74 496Q85 548 85 608Q72 608 65 615T58 636V690Q59 708 67 715T95 722H123Q143 722 150 715Z" />
<glyph unicode="&#x201a;" glyph-name="quotesinglbase" horiz-adv-x="232" d="M151 115T158 108T165 83L166 24Q165 -56 128 -123L82 -111Q93 -51 93 1Q80 1 73 8T66 29V83Q67 101 75 108T103 115H131Q151 115 158 108Z" />
<glyph unicode="&#x201c;" glyph-name="quotedblleft" horiz-adv-x="381" d="M77 491T70 498T62 524V582Q63 665 100 729L145 717Q135 664 135 605Q148 605 155 598T161 577V524Q160 505 152 498T124 491H96Q77 491 70 498ZM237 491T230 498T223 524L222 582Q223
662 260 729L306 717Q295 666 295 605Q308 605 315 598T322 577L321 524Q320 505 312 498T284 491H256Q237 491 230 498Z" />
<glyph unicode="&#x201d;" glyph-name="quotedblright" horiz-adv-x="378" d="M143 722T150 715T157 690L158 631Q157 552 120 484L74 496Q85 548 85 608Q72 608 65 615T58 636V690Q59 708 67 715T95 722H123Q143 722 150 715ZM303 722T310 715T317 690L318 631Q317
552 280 484L234 496Q245 548 245 608Q232 608 225 615T218 636V690Q219 708 227 715T255 722H284Q303 722 310 715Z" />
<glyph unicode="&#x201e;" glyph-name="quotedblbase" horiz-adv-x="392" d="M151 115T158 108T165 83L166 24Q165 -56 128 -123L82 -111Q93 -51 93 1Q80 1 73 8T66 29V83Q67 101 75 108T103 115H131Q151 115 158 108ZM311 115T318 108T325 83L326 24Q325 -56
288 -123L242 -111Q253 -51 253 1Q240 1 233 8T226 29V83Q227 101 235 108T263 115H291Q311 115 318 108Z" />
<glyph unicode="&#x2022;" glyph-name="bullet" horiz-adv-x="365" d="M239 362T258 343T277 276V263Q277 212 258 193T191 173H178Q127 173 108 192T88 263V276Q88 324 107 343T178 362H191Q239 362 258 343Z" />
<glyph unicode="&#x2039;" glyph-name="guilsinglleft" horiz-adv-x="296" d="M250 427L128 251L251 72L200 38L39 240V262L199 460L250 427Z" />
<glyph unicode="&#x203a;" glyph-name="guilsinglright" horiz-adv-x="298" d="M258 262V240L97 38L45 72L168 251L46 427L98 460L258 262Z" />
</font>
</defs>
</svg>
