<?xml version="1.0" standalone="no"?>
<!DOCTYPE svg PUBLIC "-//W3C//DTD SVG 1.1//EN" "http://www.w3.org/Graphics/SVG/1.1/DTD/svg11.dtd">
<svg xmlns="http://www.w3.org/2000/svg">
<defs >
<font id="Exo2" horiz-adv-x="603" ><font-face
    font-family="Exo 2 Black"
    units-per-em="1000"
    panose-1="0 0 10 0 0 0 0 0 0 0"
    ascent="999"
    descent="-201"
    alphabetic="0" />
<glyph unicode=" " glyph-name="space" horiz-adv-x="210" />
<glyph unicode="!" glyph-name="exclam" horiz-adv-x="329" d="M268 461L246 227H82L60 461V695H268V461ZM229 185T244 170T260 113V72Q260 31 245 16T188 0H141Q100 0 85 15T69 72V113Q69 154 84 169T141 185H188Q229 185 244 170Z" />
<glyph unicode="&quot;" glyph-name="quotedbl" horiz-adv-x="393" d="M167 462H47L35 690H179L167 462ZM346 462H226L214 690H358L346 462Z" />
<glyph unicode="#" glyph-name="numbersign" horiz-adv-x="740" d="M584 404L567 304H677L653 182H546L514 0H359L391 182H295L263 0H108L140 182H22L46 304H161L178 404H64L88 526H199L228 690H383L354 526H450L479 690H634L605 526H719L695 404H584ZM429 404H333L316
304H412L429 404Z" />
<glyph unicode="$" glyph-name="dollar" horiz-adv-x="595" d="M572 123T551 79T479 13T341 -13L331 -110H176L187 -8Q108 1 37 20L50 172Q238 167 294 167Q333 167 346 172T359 191Q359 205 350 214T312 233L181 293Q100 331 66 378T32 501Q32 576 56 619T132
681T277 704L288 789H444L432 697Q498 689 553 669L540 530Q424 532 303 532Q267 532 255 527T243 506Q243 492 255 482T303 459L422 407Q504 370 538 322T572 197Q572 123 551 79Z" />
<glyph unicode="%" glyph-name="percent" horiz-adv-x="921" d="M273 704T312 686T368 623T386 498Q386 418 369 374T312 311T203 292Q134 292 96 310T40 373T22 498Q22 578 39 622T95 685T203 704Q273 704 312 686ZM333 0H207L587 690H713L333 0ZM190 595T185
590T177 565T175 498Q175 450 177 431T184 406T203 401Q217 401 222 406T230 431T233 498Q233 545 231 564T223 589T203 595Q190 595 185 590ZM787 398T826 380T882 317T900 192Q900 112 883 68T826 5T717 -14Q648 -14 610 4T554 67T536 192Q536 272 553 316T609
379T717 398Q787 398 826 380ZM704 289T699 284T691 260T689 192Q689 145 691 126T698 101T717 95Q731 95 736 100T744 125T747 192Q747 239 745 259T737 284T717 289Q704 289 699 284Z" />
<glyph unicode="&amp;" glyph-name="ampersand" horiz-adv-x="761" d="M742 12Q716 0 671 -7T592 -14Q545 -14 511 2T459 48Q420 15 374 1T251 -14Q135 -14 85 29T35 176Q35 258 67 303T172 355V361Q110 367 84 405T57 520Q57 600 83 639T167 691T335 704Q436
704 501 690L476 550L443 551Q381 553 329 553Q306 553 295 548T280 529T275 486Q275 446 285 433T329 419H447L458 508H636V419H723V288H636V182Q636 162 643 154T669 146H719L742 12ZM264 191T267 177T281 156T312 150Q337 150 373 154T439 165V288H317Q293 288
283 283T268 264T264 221Q264 191 267 177Z" />
<glyph unicode="&apos;" glyph-name="quotesingle" horiz-adv-x="214" d="M167 462H47L35 690H179L167 462Z" />
<glyph unicode="(" glyph-name="parenleft" horiz-adv-x="372" d="M366 702Q292 672 260 574T228 313Q228 153 260 55T366 -77L342 -165Q178 -122 102 -7T25 312Q25 516 101 632T342 790L366 702Z" />
<glyph unicode=")" glyph-name="parenright" horiz-adv-x="372" d="M194 748T270 632T347 312Q347 109 271 -6T30 -165L6 -77Q80 -44 112 54T144 313Q144 475 112 573T6 702L30 790Q194 748 270 632Z" />
<glyph unicode="*" glyph-name="asterisk" horiz-adv-x="456" d="M268 517L381 388L292 322L228 441L165 322L75 388L190 516L172 692H284L268 517ZM433 516L313 492L288 522L286 571L399 623L433 516ZM170 571V522L145 492L23 516L57 622L170 571Z" />
<glyph unicode="+" glyph-name="plus" horiz-adv-x="523" d="M497 226H338V68H185V226H26V381H185V539H338V381H497V226Z" />
<glyph unicode="," glyph-name="comma" horiz-adv-x="255" d="M187 185T202 170T219 113V49Q219 -22 203 -68T152 -162L74 -137Q91 -86 93 0Q34 0 32 64L35 113Q36 154 51 169T106 185H147Q187 185 202 170Z" />
<glyph unicode="-" glyph-name="hyphen" horiz-adv-x="379" d="M335 196H44V318H335V196Z" />
<glyph unicode="." glyph-name="period" horiz-adv-x="259" d="M194 185T209 170T225 113V72Q225 31 210 16T153 0H106Q65 0 50 15T34 72V113Q34 154 49 169T106 185H153Q194 185 209 170Z" />
<glyph unicode="/" glyph-name="slash" horiz-adv-x="588" d="M180 -79H15L408 690H573L180 -79Z" />
<glyph unicode="0" glyph-name="zero" horiz-adv-x="658" d="M440 704T504 671T596 561T624 345Q624 206 596 129T504 19T328 -14Q216 -14 153 19T62 129T34 345Q34 484 62 561T153 671T328 704Q440 704 504 671ZM293 543T278 530T256 476T249 345Q249 255 255
214T277 160T327 147Q363 147 379 160T402 214T409 345Q409 435 403 476T380 530T327 543Q293 543 278 530Z" />
<glyph unicode="1" glyph-name="one" horiz-adv-x="466" d="M394 0H178V432Q178 487 186 521L27 490L2 623L178 690H394V0Z" />
<glyph unicode="2" glyph-name="two" horiz-adv-x="600" d="M423 702T487 665T552 530Q552 491 545 463T515 404T447 326L284 172Q324 184 376 182H568V0H33V108Q33 135 40 155T63 195L207 336Q330 459 330 502Q330 516 318 519T269 523Q144 523 46 521L39 680Q111
693 170 697T297 702Q423 702 487 665Z" />
<glyph unicode="3" glyph-name="three" horiz-adv-x="578" d="M376 704T427 689T502 640T525 543Q525 461 501 420T411 369V365Q486 354 514 313T543 186Q543 113 518 70T436 6T286 -14Q168 -14 28 5L34 157Q150 152 226 152Q270 152 291 156T320 175T329 222Q329
263 314 277T252 291L119 289V421H252Q284 421 299 427T318 446T323 483Q323 517 308 528T246 539H49L43 685Q161 704 285 704Q376 704 427 689Z" />
<glyph unicode="4" glyph-name="four" horiz-adv-x="659" d="M642 278V160L565 140H563V0H366V140H89Q55 140 33 161T10 214Q10 231 15 243L182 690H382L242 303L240 294Q240 278 259 278H366V448L401 554H563V278H642Z" />
<glyph unicode="5" glyph-name="five" horiz-adv-x="568" d="M513 535H229L223 463L351 446Q457 433 499 369T541 215Q541 -12 280 -12Q175 -12 24 6L42 167Q178 161 223 161Q263 161 284 167T315 186T326 223Q329 258 308 272T234 291L108 307Q81 311 65 330T49
375L68 690H520L513 535Z" />
<glyph unicode="6" glyph-name="six" horiz-adv-x="608" d="M457 456T501 435T564 368T583 246Q583 150 561 95T480 14T313 -12Q205 -12 146 17T61 121T35 339Q35 492 68 570T167 675T347 702Q394 702 440 698T536 680L528 551H347Q305 551 284 542T254 505T243
422Q269 441 300 448T377 456Q457 456 501 435ZM347 139T360 148T377 176T381 241Q381 274 376 289T356 309T312 314Q293 314 277 310T242 297Q243 222 247 191T266 150T315 139Q347 139 360 148Z" />
<glyph unicode="7" glyph-name="seven" horiz-adv-x="543" d="M493 690T516 669T539 617Q539 606 534 589L327 0H116L275 438Q293 489 313 517H23L14 690H457Q493 690 516 669Z" />
<glyph unicode="8" glyph-name="eight" horiz-adv-x="639" d="M429 704T486 685T564 627T585 518Q585 459 558 413T477 360V356Q548 350 575 300T603 172Q603 100 580 61T495 4T320 -14Q207 -14 147 3T62 60T37 172Q37 249 64 299T163 356V360Q109 366 82 412T55
518Q55 587 76 626T155 685T320 704Q429 704 486 685ZM290 564T276 559T255 538T249 489Q249 461 255 448T276 429T323 424Q352 424 366 429T386 447T391 489Q391 522 386 537T366 558T321 564Q290 564 276 559ZM287 292T270 286T247 263T240 212Q240 180 246 165T270
143T321 137Q354 137 370 143T393 164T399 212Q399 246 393 262T371 285T322 292Q287 292 270 286Z" />
<glyph unicode="9" glyph-name="nine" horiz-adv-x="608" d="M411 702T469 673T549 571T572 351Q572 195 542 118T448 15T260 -12Q209 -12 160 -8T55 10L64 140Q129 139 260 139Q300 139 321 150T352 189T364 268Q337 250 306 242T230 234Q118 234 73 287T27 444Q27
539 50 594T131 676T296 702Q411 702 469 673ZM230 417T235 402T254 382T296 376Q315 376 330 380T365 394Q364 468 360 499T341 540T294 551Q264 551 251 542T234 513T230 449Q230 417 235 402Z" />
<glyph unicode=":" glyph-name="colon" horiz-adv-x="277" d="M195 462T210 447T226 390V349Q226 308 211 293T154 277H107Q66 277 51 292T35 349V390Q35 431 50 446T107 462H154Q195 462 210 447ZM195 186T210 171T226 114V73Q226 32 211 17T154 1H107Q66 1 51
16T35 73V114Q35 155 50 170T107 186H154Q195 186 210 171Z" />
<glyph unicode=";" glyph-name="semicolon" horiz-adv-x="277" d="M204 462T219 447T235 390V349Q235 308 220 293T163 277H116Q75 277 60 292T44 349V390Q44 431 59 446T116 462H163Q204 462 219 447ZM197 185T212 170T229 113V49Q229 -22 213 -68T162 -162L84
-137Q101 -86 103 0Q44 0 42 64L45 113Q46 154 61 169T116 185H157Q197 185 212 170Z" />
<glyph unicode="&lt;" glyph-name="less" horiz-adv-x="505" d="M461 378L202 303L461 228V65L26 223V384L461 541V378Z" />
<glyph unicode="=" glyph-name="equal" horiz-adv-x="571" d="M526 337H45V483H526V337ZM526 121H45V267H526V121Z" />
<glyph unicode="&gt;" glyph-name="greater" horiz-adv-x="502" d="M476 384V223L44 65V228L300 303L44 378V541L476 384Z" />
<glyph unicode="?" glyph-name="question" horiz-adv-x="536" d="M404 712T459 674T515 557Q515 523 504 496T477 449T431 399Q387 354 364 318T333 227H169Q164 303 189 355T258 461Q270 476 280 490T292 513Q293 516 293 522Q293 535 280 540T236 546H29L24
684L54 690Q114 702 159 707T288 712Q404 712 459 674ZM315 185T330 170T346 113V72Q346 31 331 16T274 0H227Q186 0 171 15T155 72V113Q155 154 170 169T227 185H274Q315 185 330 170Z" />
<glyph unicode="@" glyph-name="at" horiz-adv-x="801" d="M661 617T710 574T759 428V138H606L590 201Q564 168 525 147T434 125Q368 125 324 159T279 253V298Q279 353 318 384T426 416H567V429Q567 453 556 463T517 474H399Q313 473 283 464T241 415T230 270Q230
168 241 128T285 77T404 66H451H760V-62Q567 -79 451 -79Q257 -79 175 -55T66 39T39 270Q39 431 62 500T157 593T399 617H561Q661 617 710 574ZM498 324Q464 321 464 296V282Q464 270 473 262T501 254Q533 254 567 275V329L498 324Z" />
<glyph unicode="A" glyph-name="A" horiz-adv-x="683" d="M436 149H247L212 0H-9L170 634Q177 659 197 674T243 690H440Q466 690 486 675T513 634L692 0H471L436 149ZM401 301L367 449Q358 496 355 528H328Q322 481 316 449L282 301H401Z" />
<glyph unicode="B" glyph-name="B" horiz-adv-x="660" d="M564 348T598 303T633 172Q633 102 607 63T527 8T383 -8Q262 -8 192 -7T52 0V690Q115 695 178 696T350 698Q449 698 504 683T585 628T610 518Q610 443 581 405T484 361V355Q564 348 598 303ZM403 527T391
539T339 551H264V421H341Q379 421 391 434T403 487Q403 527 391 539ZM375 139T390 145T411 167T417 216Q417 249 411 265T390 288T343 294H264V139H344Q375 139 390 145Z" />
<glyph unicode="C" glyph-name="C" horiz-adv-x="605" d="M423 702T470 696T572 675L556 517Q533 517 521 518L345 519Q310 519 292 505T267 454T260 345Q260 273 267 237T292 186T345 171Q427 171 475 172T571 179L587 21Q534 3 480 -4T345 -12Q229 -12 161 22T63
134T32 345Q32 478 62 555T161 667T345 702Q423 702 470 696Z" />
<glyph unicode="D" glyph-name="D" horiz-adv-x="701" d="M470 700T538 669T638 562T669 345Q669 204 638 128T539 21T347 -10Q197 -10 52 0V690Q228 700 347 700Q470 700 538 669ZM385 147T404 163T432 221T440 345Q440 427 432 468T405 526T347 543H269V148Q293
147 347 147Q385 147 404 163Z" />
<glyph unicode="E" glyph-name="E" horiz-adv-x="596" d="M558 162L568 9Q502 0 418 -2T209 -4Q138 -4 93 39T47 153V537Q47 607 92 650T209 694Q333 694 417 692T568 681L558 528H305Q286 528 275 518T264 492V425H522V281H264V198Q264 182 275 172T305 162H558Z" />
<glyph unicode="F" glyph-name="F" horiz-adv-x="574" d="M290 528T279 518T267 492V411H514V267H267V0H50V537Q50 607 96 650T214 694Q334 694 416 692T561 680L551 528H310Q290 528 279 518Z" />
<glyph unicode="G" glyph-name="G" horiz-adv-x="668" d="M631 397V0H471L452 71Q424 36 375 11T261 -14Q180 -14 130 21T56 136T32 345Q32 479 63 557T165 669T357 704Q438 704 492 698T602 675L586 519H556Q430 521 358 521Q318 521 298 507T269 455T260 345Q260
274 268 237T294 186T348 171Q383 171 423 177V397H631Z" />
<glyph unicode="H" glyph-name="H" horiz-adv-x="714" d="M661 690V0H444V290H270V0H53V690H270V442H444V690H661Z" />
<glyph unicode="I" glyph-name="I" horiz-adv-x="321" d="M268 0H53V690H268V0Z" />
<glyph unicode="J" glyph-name="J" horiz-adv-x="404" d="M354 127Q354 60 305 23T171 -14Q132 -14 83 -7T10 12L33 148H80Q110 148 124 156T139 183V690H354V127Z" />
<glyph unicode="K" glyph-name="K" horiz-adv-x="676" d="M298 288H262Q270 253 270 225V0H53V690H270V516Q270 469 260 428H298L442 690H675L516 420Q504 398 487 382T455 359V355Q470 349 491 329T524 287L685 0H444L298 288Z" />
<glyph unicode="L" glyph-name="L" horiz-adv-x="557" d="M267 208Q267 192 278 182T309 172H541L551 10Q483 1 406 -1T214 -4Q140 -4 95 39T50 153V690H267V208Z" />
<glyph unicode="M" glyph-name="M" horiz-adv-x="952" d="M885 690T888 615L912 0H717L696 528H681L613 176Q608 143 587 127T531 110H419Q348 110 336 176L267 528H252L235 0H40L64 615Q67 690 140 690H327Q397 690 409 623L459 349Q464 317 470 246H479L483
281Q485 307 491 349L538 623Q550 690 621 690H812Q885 690 888 615Z" />
<glyph unicode="N" glyph-name="N" horiz-adv-x="738" d="M687 75Q687 38 668 19T612 0H529Q498 0 482 14T445 63L295 300Q270 345 249 418H242Q252 348 252 292V0H52V615Q52 652 71 671T127 690H210Q241 690 257 676T294 627L438 401Q465 353 491 283H498Q489
359 489 408L488 690H687V75Z" />
<glyph unicode="O" glyph-name="O" horiz-adv-x="707" d="M476 704T544 673T644 565T675 345Q675 202 644 125T545 17T353 -14Q231 -14 163 17T63 125T32 345Q32 488 63 565T162 673T353 704Q476 704 544 673ZM315 543T296 527T268 469T260 345Q260 263 268 222T295
164T353 147Q391 147 410 163T438 221T446 345Q446 427 438 468T411 526T353 543Q315 543 296 527Z" />
<glyph unicode="P" glyph-name="P" horiz-adv-x="646" d="M456 700T517 680T604 609T630 465Q630 373 606 323T526 253T374 232Q320 232 269 238V0H52V690Q118 696 175 698T344 700Q456 700 517 680ZM383 385T398 401T413 465Q413 499 407 516T385 540T339 547H269V385H339Q383
385 398 401Z" />
<glyph unicode="Q" glyph-name="Q" horiz-adv-x="707" d="M476 704T544 673T644 565T675 345Q675 202 644 125T545 17T353 -14Q231 -14 163 17T63 125T32 345Q32 488 63 565T162 673T353 704Q476 704 544 673ZM315 543T296 527T268 469T260 345Q260 263 268 222T295
164T353 147Q391 147 410 163T438 221T446 345Q446 427 438 468T411 526T353 543Q315 543 296 527ZM363 -52T438 -68T623 -100L570 -275Q372 -218 248 -129L294 -26Q363 -52 438 -68Z" />
<glyph unicode="R" glyph-name="R" horiz-adv-x="676" d="M663 0H436L391 205Q385 233 373 242T332 252H265V0H52V690Q117 696 175 698T345 700Q450 700 513 681T606 616T636 490Q636 340 496 326V320Q590 308 609 212L663 0ZM387 405T402 419T418 476Q418 519
403 533T340 547H265V405H340Q387 405 402 419Z" />
<glyph unicode="S" glyph-name="S" horiz-adv-x="610" d="M465 704T565 669L552 530Q432 532 309 532Q271 532 258 527T245 506Q245 492 257 483T305 459L430 407Q515 370 550 322T585 197Q585 118 559 73T472 7T303 -14Q168 -14 36 20L49 172Q247 167 300 167Q341
167 354 172T368 191Q368 205 359 214T321 233L184 293Q100 330 65 377T30 501Q30 580 57 623T146 685T314 704Q465 704 565 669Z" />
<glyph unicode="T" glyph-name="T" horiz-adv-x="623" d="M613 528H420V0H203V528H10V690H613V528Z" />
<glyph unicode="U" glyph-name="U" horiz-adv-x="705" d="M658 285Q658 174 630 109T537 15T364 -14Q246 -14 178 15T78 109T47 285V690H264V285Q264 228 271 199T298 159T353 147Q389 147 407 158T433 199T441 285V690H658V285Z" />
<glyph unicode="V" glyph-name="V" horiz-adv-x="670" d="M504 58Q498 32 478 16T430 0H240Q212 0 192 16T166 58L-2 690H221L310 241Q314 223 320 183L323 162H347Q351 197 360 241L449 690H672L504 58Z" />
<glyph unicode="W" glyph-name="W" horiz-adv-x="1003" d="M897 58Q893 32 872 16T823 0H639Q611 0 590 16T565 58L518 439Q514 470 510 540H493Q489 470 485 438L439 58Q436 32 415 16T365 0H180Q152 0 131 16T106 58L20 690H234L269 267Q273 199 273 152H289L293
179Q304 258 305 268L351 626Q354 654 374 672T424 690H579Q608 690 628 673T652 626L699 266Q702 236 714 152H730Q730 180 735 265L769 690H983L897 58Z" />
<glyph unicode="X" glyph-name="X" horiz-adv-x="677" d="M467 0L339 290L210 0H-5L166 352L9 690H223L339 417L454 690H668L511 352L682 0H467Z" />
<glyph unicode="Y" glyph-name="Y" horiz-adv-x="654" d="M436 215V0H219V213L-10 690H213L300 473Q310 448 315 416T321 376H334Q335 382 340 415T355 474L441 690H664L436 215Z" />
<glyph unicode="Z" glyph-name="Z" horiz-adv-x="605" d="M577 152V0H29V152L327 538H39V690H567V538L269 152H577Z" />
<glyph unicode="[" glyph-name="bracketleft" horiz-adv-x="363" d="M339 640H279Q269 640 263 634T257 618V-15Q257 -25 263 -31T279 -37H339V-165H162Q113 -165 87 -143T61 -64V667Q61 712 89 740T162 768H339V640Z" />
<glyph unicode="\" glyph-name="backslash" horiz-adv-x="588" d="M573 -79H408L15 690H180L573 -79Z" />
<glyph unicode="]" glyph-name="bracketright" horiz-adv-x="363" d="M246 768T274 740T302 667V-64Q302 -109 274 -137T201 -165H24V-37H84Q94 -37 100 -31T106 -15V618Q106 628 100 634T84 640H24V768H201Q246 768 274 740Z" />
<glyph unicode="^" glyph-name="asciicircum" horiz-adv-x="497" d="M467 414L386 372L254 529H246L110 372L30 414L174 653H326L467 414Z" />
<glyph unicode="_" glyph-name="underscore" horiz-adv-x="451" d="M451 -122H0V0H451V-122Z" />
<glyph unicode="`" glyph-name="grave" horiz-adv-x="392" d="M352 617L295 531L40 634L119 767L352 617Z" />
<glyph unicode="a" glyph-name="a" horiz-adv-x="590" d="M444 514T498 468T552 310V0H385L366 70Q300 -14 193 -14Q119 -14 70 23T21 128V178Q21 238 65 272T186 307H342V311Q341 338 328 349T283 361Q173 361 67 356L48 489Q104 499 189 506T333 514Q444 514
498 468ZM225 145T236 137T267 128Q300 128 342 153V206H263Q245 206 235 198T225 175V159Q225 145 236 137Z" />
<glyph unicode="b" glyph-name="b" horiz-adv-x="618" d="M472 514T513 488T572 405T591 256Q591 135 535 62T322 -12Q254 -12 168 -1T42 30V700H252L254 561Q256 498 239 441Q274 473 315 493T402 514Q472 514 513 488ZM336 129T349 138T369 173T375 255Q375
298 370 319T352 349T314 357Q285 357 252 344V133Q290 129 309 129Q336 129 349 138Z" />
<glyph unicode="c" glyph-name="c" horiz-adv-x="528" d="M349 514T405 506T503 477L482 347H330Q297 347 279 339T254 311T246 251Q246 212 253 191T279 162T330 154Q428 154 491 161L510 30Q430 -12 292 -12Q193 -12 136 13T52 96T26 251Q26 349 52 406T136
488T294 514Q349 514 405 506Z" />
<glyph unicode="d" glyph-name="d" horiz-adv-x="620" d="M577 700V0H410L393 82Q370 39 325 14T209 -12Q114 -12 71 56T28 256Q28 356 49 412T111 491T218 514Q314 514 371 472Q367 542 367 581V700H577ZM337 156T367 171V364Q334 377 302 377Q279 377 267 369T250
336T244 258Q244 213 249 191T266 163T299 156Q337 156 367 171Z" />
<glyph unicode="e" glyph-name="e" horiz-adv-x="590" d="M431 149T536 160L555 34Q505 9 445 -1T310 -12Q157 -12 91 51T25 246Q25 346 53 404T142 488T309 514Q447 514 508 470T569 333Q569 286 551 258T490 217T375 204H250Q256 173 274 161T333 149Q431 149
536 160ZM284 379T272 374T254 352T246 303H316Q340 303 350 305T364 315T368 341Q368 365 356 372T308 379Q284 379 272 374Z" />
<glyph unicode="f" glyph-name="f" horiz-adv-x="427" d="M323 584T313 573T303 532V500H422V374H303V0H92V374H8V495L92 500V561Q92 724 276 724Q314 724 369 721T459 710L439 584H351Q323 584 313 573Z" />
<glyph unicode="g" glyph-name="g" horiz-adv-x="604" d="M591 423L536 414Q544 391 544 356Q544 297 519 263T439 214T287 198Q246 198 213 201Q207 194 207 184Q207 173 215 165T241 156L423 144Q507 138 545 100T583 -13Q583 -83 554 -119T464 -168T294 -181Q175
-181 114 -167T30 -124T7 -39Q7 -2 24 23T85 67Q60 95 60 132Q60 161 74 185T113 221Q69 238 49 271T29 356Q29 414 54 448T136 498T288 514Q381 514 433 500H601L591 423ZM324 312T336 321T349 356Q349 382 337 390T287 399Q250 399 237 391T224 356Q224 330 237
321T287 312Q324 312 336 321ZM387 5T371 10T309 19L220 26Q210 18 207 12T203 -7Q203 -26 221 -32T291 -39Q348 -39 367 -34T387 -12Q387 5 371 10Z" />
<glyph unicode="h" glyph-name="h" horiz-adv-x="621" d="M506 514T543 479T581 374V0H371V307Q371 323 363 330T335 337Q293 337 253 325V0H43V700H253L254 551Q254 493 244 440Q290 477 338 495T433 514Q506 514 543 479Z" />
<glyph unicode="i" glyph-name="i" horiz-adv-x="303" d="M257 729T257 667V616Q257 554 196 554H107Q46 554 46 616V667Q46 729 107 729H196Q257 729 257 667ZM256 0H47V500H256V0Z" />
<glyph unicode="j" glyph-name="j" horiz-adv-x="304" d="M255 739T255 677V626Q255 564 194 564H105Q44 564 44 626V677Q44 739 105 739H194Q255 739 255 677ZM257 58Q257 -22 213 -91T95 -190L-21 -98Q17 -60 32 -24T48 58V500H257V58Z" />
<glyph unicode="k" glyph-name="k" horiz-adv-x="609" d="M273 216H246Q253 171 253 143V0H43V700H253V432Q253 385 245 334H274L369 500H599L494 336Q484 318 467 301T436 276V272Q448 266 465 246T494 205L618 0H387L273 216Z" />
<glyph unicode="l" glyph-name="l" horiz-adv-x="358" d="M253 182Q253 163 265 155T303 146H337L360 12Q340 0 295 -7T213 -14Q134 -14 89 23T44 126V700H253V182Z" />
<glyph unicode="m" glyph-name="m" horiz-adv-x="885" d="M772 514T808 479T845 374V0H636V307Q636 324 629 330T603 337Q576 337 545 325V0H343V307Q343 323 335 330T309 337Q283 337 252 326V0H43V500H207L225 427Q268 473 309 493T404 514Q505 514 534 440Q573
478 612 496T701 514Q772 514 808 479Z" />
<glyph unicode="n" glyph-name="n" horiz-adv-x="621" d="M506 514T543 479T581 374V0H371V307Q371 323 363 330T335 337Q293 337 253 325V0H43V500H208L227 426Q274 470 327 492T433 514Q506 514 543 479Z" />
<glyph unicode="o" glyph-name="o" horiz-adv-x="611" d="M409 514T469 489T557 406T585 249Q585 152 558 96T470 14T306 -12Q202 -12 142 13T54 95T26 249Q26 348 53 405T141 488T306 514Q409 514 469 489ZM280 372T268 363T251 328T246 249Q246 198 251 173T268
139T306 130Q331 130 343 139T360 173T365 249Q365 302 360 327T343 362T306 372Q280 372 268 363Z" />
<glyph unicode="p" glyph-name="p" horiz-adv-x="620" d="M507 512T549 444T592 244Q592 143 571 87T510 9T403 -14Q306 -14 250 28Q254 -43 253 -81V-180H43V500H211L228 432Q252 466 303 489T412 512Q507 512 549 444ZM342 123T353 131T370 164T376 242Q376
295 371 320T354 353T322 361Q300 361 286 357T253 343V136Q286 123 319 123Q342 123 353 131Z" />
<glyph unicode="q" glyph-name="q" horiz-adv-x="618" d="M364 514T450 503T576 472V-180H366V-50Q364 13 380 72Q348 37 305 13T215 -12Q114 -12 71 53T27 246Q27 332 48 389T128 480T296 514Q364 514 450 503ZM243 208T248 189T265 162T303 155Q331 155 366
168V369Q328 373 309 373Q282 373 269 364T249 329T243 247Q243 208 248 189Z" />
<glyph unicode="r" glyph-name="r" horiz-adv-x="452" d="M450 514L432 322H379Q325 322 253 312V0H43V500H207L226 427Q272 470 322 492T421 514H450Z" />
<glyph unicode="s" glyph-name="s" horiz-adv-x="553" d="M317 514T391 508T512 492L499 370H302Q295 370 267 370T233 368T227 358Q227 352 233 349T261 341L286 334L401 305Q470 286 501 252T533 154Q533 90 509 55T433 4T291 -11Q153 -11 31 10L44 132H222Q263
132 289 132T323 136T330 147Q330 153 324 156T295 166L265 174L155 204Q78 226 51 265T24 368Q24 440 77 477T256 514Q317 514 391 508Z" />
<glyph unicode="t" glyph-name="t" horiz-adv-x="438" d="M305 374V182Q305 163 315 155T348 146H401L424 12Q394 0 345 -7T254 -14Q181 -14 138 23T95 126V374H10V495L94 499V631H305V500H426V374H305Z" />
<glyph unicode="u" glyph-name="u" horiz-adv-x="615" d="M572 500V0H407L388 73Q339 28 291 7T188 -14Q115 -14 78 21T40 126V500H250V193Q250 177 258 170T287 162Q323 162 361 174V500H572Z" />
<glyph unicode="v" glyph-name="v" horiz-adv-x="601" d="M456 49Q449 26 432 13T390 0H211Q187 0 170 13T145 49L-3 500H219L280 224Q286 195 294 130H307Q314 177 317 195L322 224L382 500H604L456 49Z" />
<glyph unicode="w" glyph-name="w" horiz-adv-x="876" d="M766 53Q761 29 743 15T698 0H551Q523 0 503 17T479 62L450 289Q448 309 446 349L444 377H431Q427 323 424 289L395 62Q392 35 372 18T323 0H178Q152 0 134 14T110 53L8 500H216L252 219Q258 157 260 130H272Q273
159 278 188L281 219L309 439Q312 466 332 483T380 500H495Q523 500 543 483T566 438L593 219L597 183Q602 156 603 130H615L618 159Q620 189 624 219L659 500H868L766 53Z" />
<glyph unicode="x" glyph-name="x" horiz-adv-x="606" d="M401 0L303 188L205 0H-3L142 255L8 500H215L303 325L391 500H598L464 255L609 0H401Z" />
<glyph unicode="y" glyph-name="y" horiz-adv-x="602" d="M604 500L445 14Q417 -75 354 -140T185 -205Q147 -205 112 -197L98 -84Q157 -72 191 -53T245 0H211Q187 0 170 13T145 49L-3 500H220L279 224Q283 197 292 130H301Q308 154 322 224L381 500H604Z" />
<glyph unicode="z" glyph-name="z" horiz-adv-x="541" d="M512 135V0H29V135L261 365H35V500H506V365L274 135H512Z" />
<glyph unicode="{" glyph-name="braceleft" horiz-adv-x="359" d="M330 640Q301 640 290 639T273 629T267 602V477Q269 409 244 373T151 328Q218 310 244 275T271 183V-2Q271 -21 276 -28T291 -36T334 -37V-165Q293 -172 256 -172Q163 -172 117 -130T71 -19V203Q71
224 67 234T54 249T22 263V393Q45 400 52 404T63 420T67 457V622Q67 691 113 733T252 775Q289 775 330 768V640Z" />
<glyph unicode="|" glyph-name="bar" horiz-adv-x="276" d="M211 -169H65V781H211V-169Z" />
<glyph unicode="}" glyph-name="braceright" horiz-adv-x="359" d="M70 775T107 775Q200 775 246 733T292 622V457Q292 431 295 420T306 405T337 393V263Q314 254 306 249T293 234T288 203V-19Q288 -88 242 -130T103 -172Q66 -172 25 -165V-37Q31 -37 53 -37T81
-29T88 -2V183Q89 240 115 275T208 328Q141 337 116 373T92 477V602Q92 621 87 629T70 638T29 640V768Q70 775 107 775Z" />
<glyph unicode="~" glyph-name="asciitilde" horiz-adv-x="500" d="M161 376T296 343Q332 334 339 333Q344 332 351 332Q363 332 365 339T368 371H455Q460 346 460 316Q460 261 436 232T374 202Q354 202 306 212T214 233L160 245Q155 246 148 246Q136 246 134
239T132 207H45Q40 239 40 259Q40 317 65 346T128 376Q161 376 296 343Z" />
<glyph unicode="&#xa0;" glyph-name="uni00A0" horiz-adv-x="210" />
<glyph unicode="&#xa1;" glyph-name="exclamdown" horiz-adv-x="312" d="M221 520T236 505T252 448V407Q252 366 237 351T180 335H133Q92 335 77 350T61 407V448Q61 489 76 504T133 520H180Q221 520 236 505ZM260 59V-175H52V59L74 293H238L260 59Z" />
<glyph unicode="&#xa2;" glyph-name="cent" horiz-adv-x="541" d="M450 93T347 86L337 0H182L193 92Q102 110 64 169T25 347Q25 439 48 495T123 578T263 609L273 690H429L418 600Q469 590 507 573L486 453H332Q291 453 270 445T241 414T232 347Q232 302 240 280T270
249T332 240Q431 240 495 247L514 126Q450 93 347 86Z" />
<glyph unicode="&#xa3;" glyph-name="sterling" d="M575 167V0H38V167Q81 187 98 214T115 279Q115 296 114 304L113 314H37L35 414H105L97 509Q96 519 96 538Q96 602 120 638T192 688T319 703Q422 703 553 693L543 538H358Q330 538 319 529T309 499L318 414H489L484
314H329L330 304Q331 297 331 283Q331 249 321 226T298 191T256 157Q275 164 294 165T342 167H575Z" />
<glyph unicode="&#xa4;" glyph-name="currency" horiz-adv-x="575" d="M496 300T471 253L542 184L456 99L386 168Q341 143 287 143Q237 143 189 167L122 100L30 192L99 260Q78 305 78 352Q78 405 103 452L36 519L122 604L189 536Q234 561 287 561Q342 561 388
535L457 604L542 519L472 449Q496 403 496 352Q496 300 471 253ZM323 261T350 288T377 353Q377 391 350 418T287 445Q251 445 224 418T197 353Q197 316 224 289T287 261Q323 261 350 288Z" />
<glyph unicode="&#xa5;" glyph-name="yen" horiz-adv-x="710" d="M542 378H611V268H101L99 378H168L18 690H241L328 483Q338 459 343 427T349 386H362Q363 395 368 427T383 484L469 690H692L542 378ZM99 238H611V128H464V0H247V128H101L99 238Z" />
<glyph unicode="&#xa6;" glyph-name="brokenbar" horiz-adv-x="278" d="M212 381H66V781H212V381ZM212 -169H66V231H212V-169Z" />
<glyph unicode="&#xa7;" glyph-name="section" horiz-adv-x="565" d="M323 704T396 701T519 692L505 550Q463 552 447 552L348 551Q310 551 292 550T265 542T257 524Q257 512 268 504T301 486L416 432Q477 403 504 368T532 285Q532 239 508 177H364Q364 214 358
232T337 261T281 295L136 371Q105 387 86 402T50 450T33 537Q33 602 60 638T142 689T283 704Q323 704 396 701ZM201 293T207 275T229 245T284 212L429 136Q459 121 479 106T515 57T532 -31Q532 -95 505 -131T423 -182T282 -197Q237 -197 166 -194T46 -185L60 -43Q89
-45 140 -45H217Q271 -45 289 -40T308 -17Q308 -6 297 2T264 20L149 75Q88 104 61 139T33 222Q33 269 57 330H201Q201 293 207 275Z" />
<glyph unicode="&#xa8;" glyph-name="dieresis" horiz-adv-x="436" d="M197 720T197 681V618Q197 579 158 579H89Q50 579 50 618V681Q50 720 89 720H158Q197 720 197 681ZM386 720T386 681V618Q386 579 347 579H278Q239 579 239 618V681Q239 720 278 720H347Q386
720 386 681Z" />
<glyph unicode="&#xa9;" glyph-name="copyright" horiz-adv-x="782" d="M493 704T576 658T707 530T755 345Q755 242 707 160T576 32T391 -14Q290 -14 207 32T75 160T27 345Q27 448 75 529T206 657T391 704Q493 704 576 658ZM320 607T260 573T165 479T129 345Q129
271 164 211T260 117T391 83Q463 83 523 117T618 211T653 345Q653 419 618 479T523 573T391 607Q320 607 260 573ZM442 541T470 538T534 525L523 416H483H395Q378 416 371 411T362 393T360 346Q360 313 362 300T371 281T395 276Q490 276 532 279L543 171Q509 160
477 155T395 150Q323 150 281 169T220 230T201 346Q201 419 220 461T281 522T395 541Q442 541 470 538Z" />
<glyph unicode="&#xaa;" glyph-name="ordfeminine" horiz-adv-x="433" d="M319 623T356 592T393 482V277H272L260 321Q218 267 146 267Q97 267 64 292T30 363V396Q30 437 60 460T142 484H242Q242 500 234 506T207 513Q119 513 63 510L49 606Q86 613 145 618T243
623Q319 623 356 592ZM176 369T201 369Q218 369 242 381V416L200 412Q176 409 176 394V386Q176 369 201 369Z" />
<glyph unicode="&#xab;" glyph-name="guillemotleft" horiz-adv-x="552" d="M524 401L438 251L524 95L414 26L256 229V273L414 470L524 401ZM289 401L203 251L289 95L179 26L21 229V273L179 470L289 401Z" />
<glyph unicode="&#xac;" glyph-name="logicalnot" horiz-adv-x="571" d="M523 381V138L368 137V237H41V381H523Z" />
<glyph unicode="&#xad;" glyph-name="uni00AD" horiz-adv-x="380" d="M335 196H44V318H335V196Z" />
<glyph unicode="&#xae;" glyph-name="registered" horiz-adv-x="493" d="M308 704T358 674T439 594T469 482Q469 421 439 370T359 289T247 259Q186 259 135 289T54 370T24 482Q24 543 54 593T135 674T247 704Q308 704 358 674ZM291 316T328 338T388 399T411 482Q411
527 389 564T329 624T247 647Q203 647 165 625T105 565T82 482Q82 437 104 399T165 339T247 316Q291 316 328 338ZM364 383H274L263 443Q260 450 257 452T245 454H233V383H148V591Q180 594 251 594Q307 594 331 580T355 530Q355 487 306 482V480Q321 479 331 473T347
446L364 383ZM261 505T265 508T269 521Q269 530 265 532T248 535H233V505H248Q261 505 265 508Z" />
<glyph unicode="&#xaf;" glyph-name="overscore" horiz-adv-x="400" d="M360 590H40V713H360V590Z" />
<glyph unicode="&#xb0;" glyph-name="degree" horiz-adv-x="325" d="M201 704T233 686T285 635T305 565Q305 526 286 494T234 444T163 425Q124 425 92 443T40 494T20 565Q20 603 39 635T91 685T163 704Q201 704 233 686ZM143 614T130 600T116 565Q116 544 129
530T163 515Q182 515 195 529T209 565Q209 586 196 600T163 614Q143 614 130 600Z" />
<glyph unicode="&#xb1;" glyph-name="plusminus" horiz-adv-x="558" d="M514 465V311H356V204H203V311H44V465H203V573H355V465H514ZM44 174H514V19H44V174Z" />
<glyph unicode="&#xb2;" glyph-name="uni00B2" horiz-adv-x="431" d="M268 781T307 772T366 737T386 663Q386 642 369 614T322 561L231 486Q262 495 288 494L396 491V360H37V439Q37 460 41 475T59 503L134 566Q201 623 212 640Q216 646 210 648T184 650Q106 650
45 652L41 769Q113 781 201 781Q268 781 307 772Z" />
<glyph unicode="&#xb3;" glyph-name="uni00B3" horiz-adv-x="411" d="M270 783T305 774T356 745T372 686Q372 635 356 611T292 581V579Q345 572 364 549T384 472Q384 427 367 401T312 363T207 351Q126 351 32 363L36 476Q68 475 108 475H161Q189 475 200 476T216
482T220 498Q220 513 213 517T179 522L92 525V618L179 622Q205 623 211 626T217 642Q217 654 211 657T178 660Q116 660 46 662L42 771Q126 783 207 783Q270 783 305 774Z" />
<glyph unicode="&#xb4;" glyph-name="acute" horiz-adv-x="392" d="M352 614L97 511L40 597L273 747L352 614Z" />
<glyph unicode="&#xb5;" glyph-name="uni00B5" horiz-adv-x="636" d="M630 15Q554 -13 483 -13Q430 -13 396 10T362 81V84Q345 49 317 23T252 -11V-65L226 -180H43V500H253V208Q253 179 260 171T283 162Q300 162 317 178T347 229T359 314V500H568V162Q568 137
573 127T593 117H623L630 15Z" />
<glyph unicode="&#xb6;" glyph-name="paragraph" horiz-adv-x="621" d="M472 702T549 685V0H422V578L383 579V-210H256V201Q129 212 75 270T20 450Q20 543 54 598T161 677T357 702Q472 702 549 685Z" />
<glyph unicode="&#xb7;" glyph-name="middot" horiz-adv-x="265" d="M197 351T212 336T228 279V238Q228 197 213 182T156 166H109Q68 166 53 181T37 238V279Q37 320 52 335T109 351H156Q197 351 212 336Z" />
<glyph unicode="&#xb8;" glyph-name="cedilla" horiz-adv-x="263" d="M139 -26T166 -26Q210 -26 229 -40T248 -90Q248 -167 196 -207T61 -248Q38 -248 14 -245L36 -167Q76 -167 98 -158T123 -116Q124 -109 119 -107T96 -105H53L72 -33Q139 -26 166 -26Z" />
<glyph unicode="&#xb9;" glyph-name="uni00B9" horiz-adv-x="321" d="M275 360H115V591Q115 626 121 651L24 637L6 735L115 774H275V360Z" />
<glyph unicode="&#xba;" glyph-name="ordmasculine" horiz-adv-x="435" d="M289 623T330 606T389 549T408 444Q408 379 390 341T330 286T218 269Q147 269 106 286T46 341T27 444Q27 510 45 549T105 605T218 623Q289 623 330 606ZM203 521T197 516T188 494T185
444Q185 411 187 396T196 376T218 370Q232 370 238 375T247 396T250 444Q250 478 248 494T239 515T218 521Q203 521 197 516Z" />
<glyph unicode="&#xbb;" glyph-name="guillemotright" horiz-adv-x="552" d="M296 273V229L138 26L28 95L114 251L28 401L138 470L296 273ZM531 273V229L373 26L263 95L349 251L263 401L373 470L531 273Z" />
<glyph unicode="&#xbc;" glyph-name="onequarter" horiz-adv-x="944" d="M120 507Q120 542 126 567L37 553L19 651L120 690H280V276H120V507ZM683 690L296 0H170L557 690H683ZM920 177V90L876 76H875V0H728V76H556Q533 76 518 89T503 122Q503 132 507 141L610
414H751L668 187L667 183Q667 177 678 177H728V270L753 331H875V177H920Z" />
<glyph unicode="&#xbd;" glyph-name="onehalf" horiz-adv-x="943" d="M280 276H120V507Q120 542 126 567L37 553L19 651L120 690H280V276ZM296 0H170L556 690H683L296 0ZM788 421T826 412T884 377T904 303Q904 283 888 255T841 201L754 126Q785 135 809 134L913
131V0H560V79Q560 100 564 115T582 143L654 206Q660 212 691 240T730 280L732 284Q732 290 704 290Q628 290 568 292L564 409Q635 421 721 421Q788 421 826 412Z" />
<glyph unicode="&#xbe;" glyph-name="threequarters" horiz-adv-x="1017" d="M375 318T336 291T202 264Q123 264 30 276L34 389Q66 388 105 388H156Q183 388 193 389T207 395T211 411Q211 428 205 433T174 438L89 437V532H174Q197 532 202 536T208 555Q208 567
203 569T173 573Q77 575 44 575L40 684Q123 696 203 696Q265 696 299 687T348 658T363 599Q363 547 348 524T285 494V492Q337 485 356 462T375 385Q375 318 336 291ZM759 690L372 0H246L632 690H759ZM995 177V90L951 76H950V0H803V76H632Q608 76 593 89T578 123Q578
129 582 141L685 414H826L743 187L742 183Q742 177 754 177H803V270L828 331H950V177H995Z" />
<glyph unicode="&#xbf;" glyph-name="questiondown" horiz-adv-x="531" d="M348 518T363 503T379 446V405Q379 364 364 349T307 333H260Q219 333 204 348T188 405V446Q188 487 203 502T260 518H307Q348 518 363 503ZM370 215T345 163T276 57Q264 42 254 28T242
5Q241 2 241 -4Q241 -17 254 -22T298 -28H505L510 -166L480 -172Q420 -184 375 -189T246 -194Q130 -194 75 -156T19 -39Q19 -5 30 22T57 69T103 119Q147 164 170 200T201 291H365Q370 215 345 163Z" />
<glyph unicode="&#xc0;" glyph-name="Agrave" horiz-adv-x="683" d="M436 149H247L212 0H-9L170 634Q177 659 197 674T243 690H440Q466 690 486 675T513 634L692 0H471L436 149ZM401 301L367 449Q358 496 355 528H328Q322 481 316 449L282 301H401ZM443 826L386
740L131 843L210 976L443 826Z" />
<glyph unicode="&#xc1;" glyph-name="Aacute" horiz-adv-x="683" d="M436 149H247L212 0H-9L170 634Q177 659 197 674T243 690H440Q466 690 486 675T513 634L692 0H471L436 149ZM401 301L367 449Q358 496 355 528H328Q322 481 316 449L282 301H401ZM553 823L298
720L241 806L474 956L553 823Z" />
<glyph unicode="&#xc2;" glyph-name="Acircumflex" horiz-adv-x="683" d="M436 149H247L212 0H-9L170 634Q177 659 197 674T243 690H440Q466 690 486 675T513 634L692 0H471L436 149ZM401 301L367 449Q358 496 355 528H328Q322 481 316 449L282 301H401ZM555 789L507
720L348 813H340L178 720L128 797L268 930H420L555 789Z" />
<glyph unicode="&#xc3;" glyph-name="Atilde" horiz-adv-x="683" d="M436 149H247L212 0H-9L170 634Q177 659 197 674T243 690H440Q466 690 486 675T513 634L692 0H471L436 149ZM401 301L367 449Q358 496 355 528H328Q322 481 316 449L282 301H401ZM265 918T289
912T348 894Q378 883 406 877Q411 876 418 876Q430 876 432 883T435 915H522Q527 891 527 862Q527 805 502 775T437 746Q410 748 387 754T324 773Q290 785 267 789Q262 790 255 790Q243 790 241 783T239 751H152Q147 783 147 802Q147 861 173 891T237 920Q265 918
289 912Z" />
<glyph unicode="&#xc4;" glyph-name="Adieresis" horiz-adv-x="683" d="M436 149H247L212 0H-9L170 634Q177 659 197 674T243 690H440Q466 690 486 675T513 634L692 0H471L436 149ZM401 301L367 449Q358 496 355 528H328Q322 481 316 449L282 301H401ZM320 904T320
865V802Q320 763 281 763H212Q173 763 173 802V865Q173 904 212 904H281Q320 904 320 865ZM509 904T509 865V802Q509 763 470 763H401Q362 763 362 802V865Q362 904 401 904H470Q509 904 509 865Z" />
<glyph unicode="&#xc5;" glyph-name="Aring" horiz-adv-x="683" d="M436 149H247L212 0H-9L170 634Q177 659 197 674T243 690H440Q466 690 486 675T513 634L692 0H471L436 149ZM401 301L367 449Q358 496 355 528H328Q322 481 316 449L282 301H401ZM377 963T407
946T454 901T472 838Q472 804 455 775T408 730T343 713Q308 713 279 729T232 775T214 838Q214 872 231 900T279 946T343 963Q377 963 407 946ZM325 883T312 870T299 838Q299 819 312 806T343 793Q361 793 374 806T387 838Q387 856 374 869T343 883Q325 883 312
870Z" />
<glyph unicode="&#xc6;" glyph-name="AE" horiz-adv-x="954" d="M916 159L926 9Q857 0 779 -2T585 -4Q518 -4 479 39T439 153V161H269L202 0H-19L222 534Q249 594 286 627T390 676T576 692Q697 692 771 690T926 681L916 531H680Q663 531 652 521T641 495V420H882V286H641V195Q641
179 651 169T680 159H916ZM439 309V498Q439 530 454 560H440Q433 550 426 536T417 516L331 309H439Z" />
<glyph unicode="&#xc7;" glyph-name="Ccedilla" horiz-adv-x="605" d="M423 702T470 696T572 675L556 517Q533 517 521 518L345 519Q310 519 292 505T267 454T260 345Q260 273 267 237T292 186T345 171Q427 171 475 172T571 179L587 21Q534 3 480 -4T345 -12Q229
-12 161 22T63 134T32 345Q32 478 62 555T161 667T345 702Q423 702 470 696ZM322 -58T349 -58Q393 -58 412 -72T431 -122Q431 -199 379 -239T244 -280Q221 -280 197 -277L219 -199Q259 -199 281 -190T306 -148Q307 -141 302 -139T279 -137H236L255 -65Q322 -58
349 -58Z" />
<glyph unicode="&#xc8;" glyph-name="Egrave" horiz-adv-x="596" d="M558 162L568 9Q502 0 418 -2T209 -4Q138 -4 93 39T47 153V537Q47 607 92 650T209 694Q333 694 417 692T568 681L558 528H305Q286 528 275 518T264 492V425H522V281H264V198Q264 182 275 172T305
162H558ZM423 826L366 740L111 843L190 976L423 826Z" />
<glyph unicode="&#xc9;" glyph-name="Eacute" horiz-adv-x="596" d="M558 162L568 9Q502 0 418 -2T209 -4Q138 -4 93 39T47 153V537Q47 607 92 650T209 694Q333 694 417 692T568 681L558 528H305Q286 528 275 518T264 492V425H522V281H264V198Q264 182 275 172T305
162H558ZM533 823L278 720L221 806L454 956L533 823Z" />
<glyph unicode="&#xca;" glyph-name="Ecircumflex" horiz-adv-x="596" d="M558 162L568 9Q502 0 418 -2T209 -4Q138 -4 93 39T47 153V537Q47 607 92 650T209 694Q333 694 417 692T568 681L558 528H305Q286 528 275 518T264 492V425H522V281H264V198Q264 182 275
172T305 162H558ZM535 789L487 720L328 813H320L158 720L108 797L248 930H400L535 789Z" />
<glyph unicode="&#xcb;" glyph-name="Edieresis" horiz-adv-x="596" d="M558 162L568 9Q502 0 418 -2T209 -4Q138 -4 93 39T47 153V537Q47 607 92 650T209 694Q333 694 417 692T568 681L558 528H305Q286 528 275 518T264 492V425H522V281H264V198Q264 182 275
172T305 162H558ZM300 904T300 865V802Q300 763 261 763H192Q153 763 153 802V865Q153 904 192 904H261Q300 904 300 865ZM489 904T489 865V802Q489 763 450 763H381Q342 763 342 802V865Q342 904 381 904H450Q489 904 489 865Z" />
<glyph unicode="&#xcc;" glyph-name="Igrave" horiz-adv-x="321" d="M268 0H53V690H268V0ZM261 826L204 740L-51 843L28 976L261 826Z" />
<glyph unicode="&#xcd;" glyph-name="Iacute" horiz-adv-x="321" d="M268 0H53V690H268V0ZM371 823L116 720L59 806L292 956L371 823Z" />
<glyph unicode="&#xce;" glyph-name="Icircumflex" horiz-adv-x="321" d="M268 0H53V690H268V0ZM373 789L325 720L166 813H158L-4 720L-54 797L86 930H238L373 789Z" />
<glyph unicode="&#xcf;" glyph-name="Idieresis" horiz-adv-x="321" d="M268 0H53V690H268V0ZM138 904T138 865V802Q138 763 99 763H30Q-9 763 -9 802V865Q-9 904 30 904H99Q138 904 138 865ZM327 904T327 865V802Q327 763 288 763H219Q180 763 180 802V865Q180
904 219 904H288Q327 904 327 865Z" />
<glyph unicode="&#xd0;" glyph-name="Eth" horiz-adv-x="701" d="M470 700T538 669T638 562T669 345Q669 204 638 128T539 21T347 -10Q197 -10 52 0V305H7V409H52V690Q228 700 347 700Q470 700 538 669ZM385 147T404 163T432 221T440 345Q440 427 432 468T405
526T347 543H269V409H368V305H269V148Q293 147 347 147Q385 147 404 163Z" />
<glyph unicode="&#xd1;" glyph-name="Ntilde" horiz-adv-x="738" d="M687 75Q687 38 668 19T612 0H529Q498 0 482 14T445 63L295 300Q270 345 249 418H242Q252 348 252 292V0H52V615Q52 652 71 671T127 690H210Q241 690 257 676T294 627L438 401Q465 353 491 283H498Q489
359 489 408L488 690H687V75ZM303 918T327 912T386 894Q416 883 444 877Q449 876 456 876Q468 876 470 883T473 915H560Q565 891 565 862Q565 805 540 775T475 746Q448 748 425 754T362 773Q328 785 305 789Q300 790 293 790Q281 790 279 783T277 751H190Q185 783
185 802Q185 861 211 891T275 920Q303 918 327 912Z" />
<glyph unicode="&#xd2;" glyph-name="Ograve" horiz-adv-x="707" d="M476 704T544 673T644 565T675 345Q675 202 644 125T545 17T353 -14Q231 -14 163 17T63 125T32 345Q32 488 63 565T162 673T353 704Q476 704 544 673ZM315 543T296 527T268 469T260 345Q260
263 268 222T295 164T353 147Q391 147 410 163T438 221T446 345Q446 427 438 468T411 526T353 543Q315 543 296 527ZM452 826L395 740L140 843L219 976L452 826Z" />
<glyph unicode="&#xd3;" glyph-name="Oacute" horiz-adv-x="707" d="M476 704T544 673T644 565T675 345Q675 202 644 125T545 17T353 -14Q231 -14 163 17T63 125T32 345Q32 488 63 565T162 673T353 704Q476 704 544 673ZM315 543T296 527T268 469T260 345Q260
263 268 222T295 164T353 147Q391 147 410 163T438 221T446 345Q446 427 438 468T411 526T353 543Q315 543 296 527ZM562 823L307 720L250 806L483 956L562 823Z" />
<glyph unicode="&#xd4;" glyph-name="Ocircumflex" horiz-adv-x="707" d="M476 704T544 673T644 565T675 345Q675 202 644 125T545 17T353 -14Q231 -14 163 17T63 125T32 345Q32 488 63 565T162 673T353 704Q476 704 544 673ZM315 543T296 527T268 469T260 345Q260
263 268 222T295 164T353 147Q391 147 410 163T438 221T446 345Q446 427 438 468T411 526T353 543Q315 543 296 527ZM564 789L516 720L357 813H349L187 720L137 797L277 930H429L564 789Z" />
<glyph unicode="&#xd5;" glyph-name="Otilde" horiz-adv-x="707" d="M476 704T544 673T644 565T675 345Q675 202 644 125T545 17T353 -14Q231 -14 163 17T63 125T32 345Q32 488 63 565T162 673T353 704Q476 704 544 673ZM315 543T296 527T268 469T260 345Q260
263 268 222T295 164T353 147Q391 147 410 163T438 221T446 345Q446 427 438 468T411 526T353 543Q315 543 296 527ZM274 918T298 912T357 894Q387 883 415 877Q420 876 427 876Q439 876 441 883T444 915H531Q536 891 536 862Q536 805 511 775T446 746Q419 748
396 754T333 773Q299 785 276 789Q271 790 264 790Q252 790 250 783T248 751H161Q156 783 156 802Q156 861 182 891T246 920Q274 918 298 912Z" />
<glyph unicode="&#xd6;" glyph-name="Odieresis" horiz-adv-x="707" d="M476 704T544 673T644 565T675 345Q675 202 644 125T545 17T353 -14Q231 -14 163 17T63 125T32 345Q32 488 63 565T162 673T353 704Q476 704 544 673ZM315 543T296 527T268 469T260 345Q260
263 268 222T295 164T353 147Q391 147 410 163T438 221T446 345Q446 427 438 468T411 526T353 543Q315 543 296 527ZM329 904T329 865V802Q329 763 290 763H221Q182 763 182 802V865Q182 904 221 904H290Q329 904 329 865ZM518 904T518 865V802Q518 763 479 763H410Q371
763 371 802V865Q371 904 410 904H479Q518 904 518 865Z" />
<glyph unicode="&#xd7;" glyph-name="multiply" horiz-adv-x="506" d="M367 293L489 185L392 70L254 192L115 70L19 185L140 293L19 400L115 516L254 393L392 516L489 400L367 293Z" />
<glyph unicode="&#xd8;" glyph-name="Oslash" horiz-adv-x="707" d="M612 643T643 566T675 345Q675 202 644 125T545 17T353 -14Q274 -14 223 -3L191 -71L133 -44L162 17Q93 50 63 127T32 345Q32 488 63 565T162 673T353 704Q427 704 478 694L507 757L565 730L539
675Q612 643 643 566ZM260 273T265 239L402 533Q383 543 353 543Q315 543 296 527T268 469T260 345Q260 273 265 239ZM391 147T410 163T438 221T446 345Q446 420 439 461L299 160Q318 147 353 147Q391 147 410 163Z" />
<glyph unicode="&#xd9;" glyph-name="Ugrave" horiz-adv-x="705" d="M658 285Q658 174 630 109T537 15T364 -14Q246 -14 178 15T78 109T47 285V690H264V285Q264 228 271 199T298 159T353 147Q389 147 407 158T433 199T441 285V690H658V285ZM454 826L397 740L142
843L221 976L454 826Z" />
<glyph unicode="&#xda;" glyph-name="Uacute" horiz-adv-x="705" d="M658 285Q658 174 630 109T537 15T364 -14Q246 -14 178 15T78 109T47 285V690H264V285Q264 228 271 199T298 159T353 147Q389 147 407 158T433 199T441 285V690H658V285ZM564 823L309 720L252
806L485 956L564 823Z" />
<glyph unicode="&#xdb;" glyph-name="Ucircumflex" horiz-adv-x="705" d="M658 285Q658 174 630 109T537 15T364 -14Q246 -14 178 15T78 109T47 285V690H264V285Q264 228 271 199T298 159T353 147Q389 147 407 158T433 199T441 285V690H658V285ZM566 789L518 720L359
813H351L189 720L139 797L279 930H431L566 789Z" />
<glyph unicode="&#xdc;" glyph-name="Udieresis" horiz-adv-x="705" d="M658 285Q658 174 630 109T537 15T364 -14Q246 -14 178 15T78 109T47 285V690H264V285Q264 228 271 199T298 159T353 147Q389 147 407 158T433 199T441 285V690H658V285ZM331 904T331 865V802Q331
763 292 763H223Q184 763 184 802V865Q184 904 223 904H292Q331 904 331 865ZM520 904T520 865V802Q520 763 481 763H412Q373 763 373 802V865Q373 904 412 904H481Q520 904 520 865Z" />
<glyph unicode="&#xdd;" glyph-name="Yacute" horiz-adv-x="654" d="M436 215V0H219V213L-10 690H213L300 473Q310 448 315 416T321 376H334Q335 382 340 415T355 474L441 690H664L436 215ZM538 823L283 720L226 806L459 956L538 823Z" />
<glyph unicode="&#xde;" glyph-name="Thorn" horiz-adv-x="633" d="M447 578T506 558T590 487T616 343Q616 251 592 201T515 131T367 110Q323 110 270 115V0H53V690H270V578H337Q447 578 506 558ZM360 263T374 269T393 293T399 343Q399 377 394 394T374 418T332
425H270V263H332Q360 263 374 269Z" />
<glyph unicode="&#xdf;" glyph-name="germandbls" horiz-adv-x="738" d="M686 246T701 229T724 192T732 141Q732 64 687 27T526 -11Q464 -11 345 0L358 128H475Q505 128 512 130T519 148Q519 159 507 172T467 208L440 231L410 251Q375 280 358 306T341 370Q341
393 348 408T376 448Q379 451 402 484Q423 514 429 528T436 560Q436 586 424 594T370 602Q339 602 325 598T306 581T300 541V0H90V374H8V495L90 500V566Q90 632 117 670T204 725T368 742Q474 742 529 725T606 673T627 574Q627 543 619 521T581 461Q560 434 550
417T539 386Q539 374 549 362T582 333L598 319L650 277Q686 246 701 229Z" />
<glyph unicode="&#xe0;" glyph-name="agrave" horiz-adv-x="590" d="M444 514T498 468T552 310V0H385L366 70Q300 -14 193 -14Q119 -14 70 23T21 128V178Q21 238 65 272T186 307H342V311Q341 338 328 349T283 361Q173 361 67 356L48 489Q104 499 189 506T333 514Q444
514 498 468ZM225 145T236 137T267 128Q300 128 342 153V206H263Q245 206 235 198T225 175V159Q225 145 236 137ZM403 656L346 570L91 673L170 806L403 656Z" />
<glyph unicode="&#xe1;" glyph-name="aacute" horiz-adv-x="590" d="M444 514T498 468T552 310V0H385L366 70Q300 -14 193 -14Q119 -14 70 23T21 128V178Q21 238 65 272T186 307H342V311Q341 338 328 349T283 361Q173 361 67 356L48 489Q104 499 189 506T333 514Q444
514 498 468ZM225 145T236 137T267 128Q300 128 342 153V206H263Q245 206 235 198T225 175V159Q225 145 236 137ZM513 653L258 550L201 636L434 786L513 653Z" />
<glyph unicode="&#xe2;" glyph-name="acircumflex" horiz-adv-x="590" d="M444 514T498 468T552 310V0H385L366 70Q300 -14 193 -14Q119 -14 70 23T21 128V178Q21 238 65 272T186 307H342V311Q341 338 328 349T283 361Q173 361 67 356L48 489Q104 499 189 506T333
514Q444 514 498 468ZM225 145T236 137T267 128Q300 128 342 153V206H263Q245 206 235 198T225 175V159Q225 145 236 137ZM515 619L467 550L308 643H300L138 550L88 627L228 760H380L515 619Z" />
<glyph unicode="&#xe3;" glyph-name="atilde" horiz-adv-x="590" d="M444 514T498 468T552 310V0H385L366 70Q300 -14 193 -14Q119 -14 70 23T21 128V178Q21 238 65 272T186 307H342V311Q341 338 328 349T283 361Q173 361 67 356L48 489Q104 499 189 506T333 514Q444
514 498 468ZM225 145T236 137T267 128Q300 128 342 153V206H263Q245 206 235 198T225 175V159Q225 145 236 137ZM225 748T249 742T308 724Q338 713 366 707Q371 706 378 706Q390 706 392 713T395 745H482Q487 721 487 692Q487 635 462 605T397 576Q370 578 347
584T284 603Q250 615 227 619Q222 620 215 620Q203 620 201 613T199 581H112Q107 613 107 632Q107 691 133 721T197 750Q225 748 249 742Z" />
<glyph unicode="&#xe4;" glyph-name="adieresis" horiz-adv-x="590" d="M444 514T498 468T552 310V0H385L366 70Q300 -14 193 -14Q119 -14 70 23T21 128V178Q21 238 65 272T186 307H342V311Q341 338 328 349T283 361Q173 361 67 356L48 489Q104 499 189 506T333
514Q444 514 498 468ZM225 145T236 137T267 128Q300 128 342 153V206H263Q245 206 235 198T225 175V159Q225 145 236 137ZM280 734T280 695V632Q280 593 241 593H172Q133 593 133 632V695Q133 734 172 734H241Q280 734 280 695ZM469 734T469 695V632Q469 593 430
593H361Q322 593 322 632V695Q322 734 361 734H430Q469 734 469 695Z" />
<glyph unicode="&#xe5;" glyph-name="aring" horiz-adv-x="590" d="M444 514T498 468T552 310V0H385L366 70Q300 -14 193 -14Q119 -14 70 23T21 128V178Q21 238 65 272T186 307H342V311Q341 338 328 349T283 361Q173 361 67 356L48 489Q104 499 189 506T333 514Q444
514 498 468ZM225 145T236 137T267 128Q300 128 342 153V206H263Q245 206 235 198T225 175V159Q225 145 236 137ZM337 793T367 776T414 731T432 668Q432 634 415 605T368 560T303 543Q268 543 239 559T192 605T174 668Q174 702 191 730T239 776T303 793Q337 793
367 776ZM285 713T272 700T259 668Q259 649 272 636T303 623Q321 623 334 636T347 668Q347 686 334 699T303 713Q285 713 272 700Z" />
<glyph unicode="&#xe6;" glyph-name="ae" horiz-adv-x="886" d="M728 149T832 160L851 34Q802 9 743 -1T611 -12Q523 -12 465 10T375 76Q308 -14 189 -14Q117 -14 69 23T21 128V178Q21 236 64 270T182 304H331V311Q331 338 319 349T277 361Q170 361 66 356L47
489Q101 499 185 506T327 514Q406 514 455 491Q513 514 610 514Q746 514 805 470T865 333Q865 286 847 258T786 217T672 204H546Q553 173 572 161T634 149Q728 149 832 160ZM584 379T571 374T551 352T543 303H613Q636 303 646 305T660 315T664 341Q664 365 653
372T609 379Q584 379 571 374ZM298 128T340 155Q334 187 333 205L261 206Q244 206 235 198T225 175V159Q225 145 235 137T264 128Q298 128 340 155Z" />
<glyph unicode="&#xe7;" glyph-name="ccedilla" horiz-adv-x="528" d="M349 514T405 506T503 477L482 347H330Q297 347 279 339T254 311T246 251Q246 212 253 191T279 162T330 154Q428 154 491 161L510 30Q430 -12 292 -12Q193 -12 136 13T52 96T26 251Q26 349
52 406T136 488T294 514Q349 514 405 506ZM275 -43T302 -43Q346 -43 365 -57T384 -107Q384 -184 332 -224T197 -265Q174 -265 150 -262L172 -184Q212 -184 234 -175T259 -133Q260 -126 255 -124T232 -122H189L208 -50Q275 -43 302 -43Z" />
<glyph unicode="&#xe8;" glyph-name="egrave" horiz-adv-x="590" d="M431 149T536 160L555 34Q505 9 445 -1T310 -12Q157 -12 91 51T25 246Q25 346 53 404T142 488T309 514Q447 514 508 470T569 333Q569 286 551 258T490 217T375 204H250Q256 173 274 161T333
149Q431 149 536 160ZM284 379T272 374T254 352T246 303H316Q340 303 350 305T364 315T368 341Q368 365 356 372T308 379Q284 379 272 374ZM412 648L355 562L100 665L179 798L412 648Z" />
<glyph unicode="&#xe9;" glyph-name="eacute" horiz-adv-x="590" d="M431 149T536 160L555 34Q505 9 445 -1T310 -12Q157 -12 91 51T25 246Q25 346 53 404T142 488T309 514Q447 514 508 470T569 333Q569 286 551 258T490 217T375 204H250Q256 173 274 161T333
149Q431 149 536 160ZM284 379T272 374T254 352T246 303H316Q340 303 350 305T364 315T368 341Q368 365 356 372T308 379Q284 379 272 374ZM522 645L267 542L210 628L443 778L522 645Z" />
<glyph unicode="&#xea;" glyph-name="ecircumflex" horiz-adv-x="590" d="M431 149T536 160L555 34Q505 9 445 -1T310 -12Q157 -12 91 51T25 246Q25 346 53 404T142 488T309 514Q447 514 508 470T569 333Q569 286 551 258T490 217T375 204H250Q256 173 274 161T333
149Q431 149 536 160ZM284 379T272 374T254 352T246 303H316Q340 303 350 305T364 315T368 341Q368 365 356 372T308 379Q284 379 272 374ZM524 611L476 542L317 635H309L147 542L97 619L237 752H389L524 611Z" />
<glyph unicode="&#xeb;" glyph-name="edieresis" horiz-adv-x="590" d="M431 149T536 160L555 34Q505 9 445 -1T310 -12Q157 -12 91 51T25 246Q25 346 53 404T142 488T309 514Q447 514 508 470T569 333Q569 286 551 258T490 217T375 204H250Q256 173 274 161T333
149Q431 149 536 160ZM284 379T272 374T254 352T246 303H316Q340 303 350 305T364 315T368 341Q368 365 356 372T308 379Q284 379 272 374ZM289 726T289 687V624Q289 585 250 585H181Q142 585 142 624V687Q142 726 181 726H250Q289 726 289 687ZM478 726T478 687V624Q478
585 439 585H370Q331 585 331 624V687Q331 726 370 726H439Q478 726 478 687Z" />
<glyph unicode="&#xec;" glyph-name="igrave" horiz-adv-x="305" d="M258 0H47V500H258V0ZM506 648L449 562L194 665L273 798L506 648Z" />
<glyph unicode="&#xed;" glyph-name="iacute" horiz-adv-x="305" d="M258 0H47V500H258V0ZM360 645L105 542L48 628L281 778L360 645Z" />
<glyph unicode="&#xee;" glyph-name="icircumflex" horiz-adv-x="305" d="M258 0H47V500H258V0ZM618 611L570 542L411 635H403L241 542L191 619L331 752H483L618 611Z" />
<glyph unicode="&#xef;" glyph-name="idieresis" horiz-adv-x="305" d="M258 0H47V500H258V0ZM383 726T383 687V624Q383 585 344 585H275Q236 585 236 624V687Q236 726 275 726H344Q383 726 383 687ZM572 726T572 687V624Q572 585 533 585H464Q425 585 425 624V687Q425
726 464 726H533Q572 726 572 687Z" />
<glyph unicode="&#xf0;" glyph-name="eth" horiz-adv-x="604" d="M534 520T555 448T576 291Q576 176 547 110T457 15T297 -14Q158 -14 93 41T27 214Q27 339 78 396T252 453Q306 453 346 441Q333 509 294 539T173 570Q161 570 129 568L146 698Q178 700 192 700Q285
700 357 671L439 754L558 641L491 574Q534 520 555 448ZM325 130T336 142T352 186T356 290V308Q330 311 302 311Q281 311 270 306T253 280T247 218Q247 181 251 163T266 138T299 130Q325 130 336 142Z" />
<glyph unicode="&#xf1;" glyph-name="ntilde" horiz-adv-x="621" d="M506 514T543 479T581 374V0H371V307Q371 323 363 330T335 337Q293 337 253 325V0H43V500H208L227 426Q274 470 327 492T433 514Q506 514 543 479ZM234 740T258 734T317 716Q347 705 375 699Q380
698 387 698Q399 698 401 705T404 737H491Q496 713 496 684Q496 627 471 597T406 568Q379 570 356 576T293 595Q259 607 236 611Q231 612 224 612Q212 612 210 605T208 573H121Q116 605 116 624Q116 683 142 713T206 742Q234 740 258 734Z" />
<glyph unicode="&#xf2;" glyph-name="ograve" horiz-adv-x="611" d="M409 514T469 489T557 406T585 249Q585 152 558 96T470 14T306 -12Q202 -12 142 13T54 95T26 249Q26 348 53 405T141 488T306 514Q409 514 469 489ZM280 372T268 363T251 328T246 249Q246 198
251 173T268 139T306 130Q331 130 343 139T360 173T365 249Q365 302 360 327T343 362T306 372Q280 372 268 363ZM406 638L349 552L94 655L173 788L406 638Z" />
<glyph unicode="&#xf3;" glyph-name="oacute" horiz-adv-x="611" d="M409 514T469 489T557 406T585 249Q585 152 558 96T470 14T306 -12Q202 -12 142 13T54 95T26 249Q26 348 53 405T141 488T306 514Q409 514 469 489ZM280 372T268 363T251 328T246 249Q246 198
251 173T268 139T306 130Q331 130 343 139T360 173T365 249Q365 302 360 327T343 362T306 372Q280 372 268 363ZM516 635L261 532L204 618L437 768L516 635Z" />
<glyph unicode="&#xf4;" glyph-name="ocircumflex" horiz-adv-x="611" d="M409 514T469 489T557 406T585 249Q585 152 558 96T470 14T306 -12Q202 -12 142 13T54 95T26 249Q26 348 53 405T141 488T306 514Q409 514 469 489ZM280 372T268 363T251 328T246 249Q246
198 251 173T268 139T306 130Q331 130 343 139T360 173T365 249Q365 302 360 327T343 362T306 372Q280 372 268 363ZM518 857L470 788L311 881H303L141 788L91 865L231 998H383L518 857Z" />
<glyph unicode="&#xf5;" glyph-name="otilde" horiz-adv-x="611" d="M409 514T469 489T557 406T585 249Q585 152 558 96T470 14T306 -12Q202 -12 142 13T54 95T26 249Q26 348 53 405T141 488T306 514Q409 514 469 489ZM280 372T268 363T251 328T246 249Q246 198
251 173T268 139T306 130Q331 130 343 139T360 173T365 249Q365 302 360 327T343 362T306 372Q280 372 268 363ZM228 730T252 724T311 706Q341 695 369 689Q374 688 381 688Q393 688 395 695T398 727H485Q490 703 490 674Q490 617 465 587T400 558Q373 560 350
566T287 585Q253 597 230 601Q225 602 218 602Q206 602 204 595T202 563H115Q110 595 110 614Q110 673 136 703T200 732Q228 730 252 724Z" />
<glyph unicode="&#xf6;" glyph-name="odieresis" horiz-adv-x="611" d="M409 514T469 489T557 406T585 249Q585 152 558 96T470 14T306 -12Q202 -12 142 13T54 95T26 249Q26 348 53 405T141 488T306 514Q409 514 469 489ZM280 372T268 363T251 328T246 249Q246
198 251 173T268 139T306 130Q331 130 343 139T360 173T365 249Q365 302 360 327T343 362T306 372Q280 372 268 363ZM283 972T283 933V870Q283 831 244 831H175Q136 831 136 870V933Q136 972 175 972H244Q283 972 283 933ZM472 972T472 933V870Q472 831 433 831H364Q325
831 325 870V933Q325 972 364 972H433Q472 972 472 933Z" />
<glyph unicode="&#xf7;" glyph-name="divide" horiz-adv-x="535" d="M336 577T352 561T369 500V482Q369 438 353 422T292 405H242Q198 405 182 421T165 482V500Q165 544 181 560T242 577H292Q336 577 352 561ZM508 219H27V365H508V219ZM336 176T352 160T369 99V81Q369
38 353 21T292 4H242Q198 4 182 20T165 81V99Q165 143 181 159T242 176H292Q336 176 352 160Z" />
<glyph unicode="&#xf8;" glyph-name="oslash" horiz-adv-x="611" d="M543 444T564 390T585 249Q585 152 558 96T470 14T306 -12Q277 -12 264 -11L219 -104L79 -33L110 30Q66 60 46 112T26 249Q26 348 53 405T141 488T306 514Q331 514 342 513L390 613L530 541L497
474Q543 444 564 390ZM331 130T343 139T360 173T365 249Q365 302 360 327T343 362T306 372Q280 372 268 363T251 328T246 249Q246 198 251 173T268 139T306 130Q331 130 343 139Z" />
<glyph unicode="&#xf9;" glyph-name="ugrave" horiz-adv-x="615" d="M572 500V0H407L388 73Q339 28 291 7T188 -14Q115 -14 78 21T40 126V500H250V193Q250 177 258 170T287 162Q323 162 361 174V500H572ZM406 648L349 562L94 665L173 798L406 648Z" />
<glyph unicode="&#xfa;" glyph-name="uacute" horiz-adv-x="615" d="M572 500V0H407L388 73Q339 28 291 7T188 -14Q115 -14 78 21T40 126V500H250V193Q250 177 258 170T287 162Q323 162 361 174V500H572ZM516 645L261 542L204 628L437 778L516 645Z" />
<glyph unicode="&#xfb;" glyph-name="ucircumflex" horiz-adv-x="615" d="M572 500V0H407L388 73Q339 28 291 7T188 -14Q115 -14 78 21T40 126V500H250V193Q250 177 258 170T287 162Q323 162 361 174V500H572ZM518 611L470 542L311 635H303L141 542L91 619L231
752H383L518 611Z" />
<glyph unicode="&#xfc;" glyph-name="udieresis" horiz-adv-x="615" d="M572 500V0H407L388 73Q339 28 291 7T188 -14Q115 -14 78 21T40 126V500H250V193Q250 177 258 170T287 162Q323 162 361 174V500H572ZM283 726T283 687V624Q283 585 244 585H175Q136 585
136 624V687Q136 726 175 726H244Q283 726 283 687ZM472 726T472 687V624Q472 585 433 585H364Q325 585 325 624V687Q325 726 364 726H433Q472 726 472 687Z" />
<glyph unicode="&#xfd;" glyph-name="yacute" horiz-adv-x="602" d="M604 500L445 14Q417 -75 354 -140T185 -205Q147 -205 112 -197L98 -84Q157 -72 191 -53T245 0H211Q187 0 170 13T145 49L-3 500H220L279 224Q283 197 292 130H301Q308 154 322 224L381 500H604ZM516
645L261 542L204 628L437 778L516 645Z" />
<glyph unicode="&#xfe;" glyph-name="thorn" horiz-adv-x="620" d="M506 512T549 444T592 244Q592 143 571 87T510 9T403 -14Q306 -14 249 27Q254 -35 253 -81V-180H43V700H253V600Q254 556 247 457Q304 512 410 512Q506 512 549 444ZM341 123T353 131T370 164T376
242Q376 295 371 320T354 353T321 361Q300 361 286 357T253 344V136Q286 123 318 123Q341 123 353 131Z" />
<glyph unicode="&#xff;" glyph-name="ydieresis" horiz-adv-x="602" d="M604 500L445 14Q417 -75 354 -140T185 -205Q147 -205 112 -197L98 -84Q157 -72 191 -53T245 0H211Q187 0 170 13T145 49L-3 500H220L279 224Q283 197 292 130H301Q308 154 322 224L381 500H604ZM283
726T283 687V624Q283 585 244 585H175Q136 585 136 624V687Q136 726 175 726H244Q283 726 283 687ZM472 726T472 687V624Q472 585 433 585H364Q325 585 325 624V687Q325 726 364 726H433Q472 726 472 687Z" />
<glyph unicode="&#x2013;" glyph-name="endash" horiz-adv-x="529" d="M485 196H44V318H485V196Z" />
<glyph unicode="&#x2014;" glyph-name="emdash" horiz-adv-x="819" d="M775 196H44V318H775V196Z" />
<glyph unicode="&#x2018;" glyph-name="quoteleft" horiz-adv-x="221" d="M61 395T48 409T33 460V518Q33 583 47 625T91 710L159 688Q144 640 142 563Q193 563 195 505L193 460Q192 423 179 409T131 395H96Q61 395 48 409Z" />
<glyph unicode="&#x2019;" glyph-name="quoteright" horiz-adv-x="218" d="M159 700T172 686T187 635V577Q187 513 173 471T129 385L61 407Q76 455 78 532Q27 532 25 590L27 635Q28 672 41 686T89 700H124Q159 700 172 686Z" />
<glyph unicode="&#x201a;" glyph-name="quotesinglbase" horiz-adv-x="232" d="M168 185T181 170T196 113V49Q196 -22 182 -68T138 -162L70 -137Q85 -85 87 0Q36 0 34 64L36 113Q37 154 50 169T98 185H133Q168 185 181 170Z" />
<glyph unicode="&#x201c;" glyph-name="quotedblleft" horiz-adv-x="420" d="M61 395T48 409T33 460V518Q33 583 47 625T91 710L159 688Q144 640 142 563Q193 563 195 505L193 460Q192 423 179 409T131 395H96Q61 395 48 409ZM260 395T247 409T232 460V518Q232
583 246 625T290 710L358 688Q343 640 341 563Q392 563 394 505L392 460Q391 423 378 409T330 395H295Q260 395 247 409Z" />
<glyph unicode="&#x201d;" glyph-name="quotedblright" horiz-adv-x="417" d="M159 700T172 686T187 635V577Q187 513 173 471T129 385L61 407Q76 455 78 532Q27 532 25 590L27 635Q28 672 41 686T89 700H124Q159 700 172 686ZM358 700T371 686T386 635V577Q386
513 372 471T328 385L260 407Q275 455 277 532Q226 532 224 590L226 635Q227 672 240 686T288 700H323Q358 700 371 686Z" />
<glyph unicode="&#x201e;" glyph-name="quotedblbase" horiz-adv-x="429" d="M167 153T180 139T195 88V30Q195 -35 181 -77T137 -162L69 -140Q84 -92 86 -15Q35 -15 33 43L35 88Q36 125 49 139T97 153H132Q167 153 180 139ZM366 153T379 139T394 88V30Q394 -35
380 -77T336 -162L268 -140Q283 -92 285 -15Q234 -15 232 43L234 88Q235 125 248 139T296 153H331Q366 153 379 139Z" />
<glyph unicode="&#x2022;" glyph-name="bullet" horiz-adv-x="381" d="M271 402T298 375T325 280V263Q325 213 314 185T276 145T203 133H186Q136 133 108 145T68 185T56 263V280Q56 326 68 352T108 390T186 402H203Q271 402 298 375Z" />
<glyph unicode="&#x2039;" glyph-name="guilsinglleft" horiz-adv-x="317" d="M289 401L203 251L289 95L179 26L21 229V273L179 470L289 401Z" />
<glyph unicode="&#x203a;" glyph-name="guilsinglright" horiz-adv-x="317" d="M296 273V229L138 26L28 95L115 251L28 401L138 470L296 273Z" />
</font>
</defs>
</svg>
